<svg width="65" height="64" viewBox="0 0 65 64" fill="none" xmlns="http://www.w3.org/2000/svg">
<g filter="url(#filter0_d_4310_7841)">
<rect y="3" width="52" height="52" rx="15" fill="#251F60"/>
</g>
<path d="M36.8221 14.4957C36.9803 14.6592 37.1016 14.8438 37.1859 15.0389C37.2703 15.234 37.3125 15.4502 37.3125 15.6822V20.75C37.3125 21.6834 36.5584 22.4375 35.625 22.4375C34.6916 22.4375 33.9375 21.6834 33.9375 20.75V19.7639L28.3793 25.3168C27.757 25.9391 26.7551 25.9812 26.0854 25.4064L21.2812 21.2826L16.4719 25.4064C15.7652 26.0129 14.7 25.9285 14.0936 25.2219C13.4871 24.5152 13.5715 23.45 14.2781 22.8436L20.1844 17.7811C20.8172 17.2379 21.7506 17.2379 22.3834 17.7811L27.1031 21.8258L31.5486 17.375H30.5625C29.6291 17.375 28.875 16.6209 28.875 15.6875C28.875 14.7541 29.6291 14 30.5625 14H35.625C36.0891 14 36.5109 14.1898 36.8168 14.4904L36.8221 14.4957ZM12 30.0312C12 28.6338 13.1338 27.5 14.5312 27.5H36.4688C37.8662 27.5 39 28.6338 39 30.0312V38.4688C39 39.8662 37.8662 41 36.4688 41H14.5312C13.1338 41 12 39.8662 12 38.4688V30.0312ZM14.5312 35.9375V38.4688H17.0625C17.0625 37.0713 15.9287 35.9375 14.5312 35.9375ZM17.0625 30.0312H14.5312V32.5625C15.9287 32.5625 17.0625 31.4287 17.0625 30.0312ZM36.4688 35.9375C35.0713 35.9375 33.9375 37.0713 33.9375 38.4688H36.4688V35.9375ZM33.9375 30.0312C33.9375 31.4287 35.0713 32.5625 36.4688 32.5625V30.0312H33.9375ZM28.875 34.25C28.875 33.3549 28.5194 32.4965 27.8865 31.8635C27.2535 31.2306 26.3951 30.875 25.5 30.875C24.6049 30.875 23.7464 31.2306 23.1135 31.8635C22.4806 32.4965 22.125 33.3549 22.125 34.25C22.125 35.1451 22.4806 36.0035 23.1135 36.6365C23.7464 37.2694 24.6049 37.625 25.5 37.625C26.3951 37.625 27.2535 37.2694 27.8865 36.6365C28.5194 36.0035 28.875 35.1451 28.875 34.25Z" fill="#BD2D61"/>
<defs>
<filter id="filter0_d_4310_7841" x="0" y="0" width="65" height="64" filterUnits="userSpaceOnUse" color-interpolation-filters="sRGB">
<feFlood flood-opacity="0" result="BackgroundImageFix"/>
<feColorMatrix in="SourceAlpha" type="matrix" values="0 0 0 0 0 0 0 0 0 0 0 0 0 0 0 0 0 0 127 0" result="hardAlpha"/>
<feOffset dx="7" dy="3"/>
<feGaussianBlur stdDeviation="3"/>
<feComposite in2="hardAlpha" operator="out"/>
<feColorMatrix type="matrix" values="0 0 0 0 0.161667 0 0 0 0 0.161667 0 0 0 0 0.161667 0 0 0 0.54 0"/>
<feBlend mode="normal" in2="BackgroundImageFix" result="effect1_dropShadow_4310_7841"/>
<feBlend mode="normal" in="SourceGraphic" in2="effect1_dropShadow_4310_7841" result="shape"/>
</filter>
</defs>
</svg>
