<svg width="65" height="64" viewBox="0 0 65 64" fill="none" xmlns="http://www.w3.org/2000/svg">
<g filter="url(#filter0_d_4310_7799)">
<rect y="3" width="52" height="52" rx="15" fill="#251F60"/>
</g>
<path d="M28.1427 20.2656H23.4882C19.1007 20.2656 16.9069 20.2656 15.5431 21.626C14.6029 22.5615 14.3116 23.8905 14.2199 26.0564C14.2025 26.4859 14.1932 26.7018 14.2733 26.8446C14.3545 26.9873 14.6737 27.1672 15.3144 27.5247C15.6753 27.7259 15.976 28.0199 16.1853 28.3762C16.3945 28.7324 16.5049 29.1381 16.5049 29.5513C16.5049 29.9645 16.3945 30.3702 16.1853 30.7265C15.976 31.0828 15.6753 31.3767 15.3144 31.5779C14.6737 31.9366 14.3534 32.1154 14.2733 32.2581C14.1932 32.4009 14.2025 32.6156 14.221 33.0451C14.3116 35.2121 14.6041 36.5412 15.5431 37.4767C16.9058 38.8371 19.0995 38.8371 23.4882 38.8371H28.1427C32.5302 38.8371 34.7239 38.8371 36.0877 37.4767C37.0279 36.5412 37.3193 35.2121 37.411 33.0463C37.4284 32.6168 37.4377 32.4009 37.3576 32.2581C37.2763 32.1154 36.9571 31.9366 36.3164 31.5779C35.9555 31.3767 35.6549 31.0828 35.4456 30.7265C35.2363 30.3702 35.126 29.9645 35.126 29.5513C35.126 29.1381 35.2363 28.7324 35.4456 28.3762C35.6549 28.0199 35.9555 27.7259 36.3164 27.5247C36.9571 27.1672 37.2775 26.9873 37.3576 26.8446C37.4377 26.7018 37.4284 26.4871 37.4098 26.0564C37.3193 23.8905 37.0268 22.5627 36.0877 21.626C34.7251 20.2656 32.5313 20.2656 28.1427 20.2656Z" fill="#373276" stroke="white" stroke-width="3"/>
<path d="M22.3333 33.0336L29.2975 26.0693L22.3333 33.0336Z" fill="white"/>
<path d="M22.3333 33.0336L29.2975 26.0693" stroke="white" stroke-width="3" stroke-linecap="round"/>
<path d="M29.8779 32.4535C29.8779 32.7614 29.7556 33.0566 29.538 33.2743C29.3203 33.492 29.0251 33.6143 28.7172 33.6143C28.4094 33.6143 28.1141 33.492 27.8965 33.2743C27.6788 33.0566 27.5565 32.7614 27.5565 32.4535C27.5565 32.1457 27.6788 31.8505 27.8965 31.6328C28.1141 31.4151 28.4094 31.2928 28.7172 31.2928C29.0251 31.2928 29.3203 31.4151 29.538 31.6328C29.7556 31.8505 29.8779 32.1457 29.8779 32.4535ZM24.0744 26.65C24.0744 26.9578 23.9521 27.253 23.7344 27.4707C23.5167 27.6884 23.2215 27.8107 22.9136 27.8107C22.6058 27.8107 22.3106 27.6884 22.0929 27.4707C21.8752 27.253 21.7529 26.9578 21.7529 26.65C21.7529 26.3421 21.8752 26.0469 22.0929 25.8292C22.3106 25.6115 22.6058 25.4893 22.9136 25.4893C23.2215 25.4893 23.5167 25.6115 23.7344 25.8292C23.9521 26.0469 24.0744 26.3421 24.0744 26.65Z" fill="white"/>
<defs>
<filter id="filter0_d_4310_7799" x="0" y="0" width="65" height="64" filterUnits="userSpaceOnUse" color-interpolation-filters="sRGB">
<feFlood flood-opacity="0" result="BackgroundImageFix"/>
<feColorMatrix in="SourceAlpha" type="matrix" values="0 0 0 0 0 0 0 0 0 0 0 0 0 0 0 0 0 0 127 0" result="hardAlpha"/>
<feOffset dx="7" dy="3"/>
<feGaussianBlur stdDeviation="3"/>
<feComposite in2="hardAlpha" operator="out"/>
<feColorMatrix type="matrix" values="0 0 0 0 0.161667 0 0 0 0 0.161667 0 0 0 0 0.161667 0 0 0 0.54 0"/>
<feBlend mode="normal" in2="BackgroundImageFix" result="effect1_dropShadow_4310_7799"/>
<feBlend mode="normal" in="SourceGraphic" in2="effect1_dropShadow_4310_7799" result="shape"/>
</filter>
</defs>
</svg>
