<svg width="65" height="64" viewBox="0 0 65 64" fill="none" xmlns="http://www.w3.org/2000/svg">
<g filter="url(#filter0_d_4310_7832)">
<rect y="3" width="52" height="52" rx="15" fill="#251F60"/>
</g>
<g clip-path="url(#clip0_4310_7832)">
<path d="M27.1792 27.6453L27.2949 27.5225C27.295 27.5224 27.2951 27.5223 27.2951 27.5222C27.7009 27.0893 28.0555 26.8924 28.4762 26.8829M27.1792 27.6453L28.8717 27.2776M27.1792 27.6453L27.0586 27.5263L27.0585 27.5262C26.6009 27.0752 26.1897 26.9083 25.743 26.9279C25.3113 26.9469 24.8575 27.1685 24.4011 27.5379L27.1792 27.6453ZM28.4762 26.8829L28.4841 27.2328M28.4762 26.8829C28.4759 26.8829 28.4755 26.8829 28.4752 26.8829L28.4841 27.2328M28.4762 26.8829C28.5013 26.8823 28.5264 26.8823 28.5515 26.8829L28.5531 26.8829C28.688 26.887 28.8193 26.9093 28.9427 26.9349M28.4841 27.2328C28.193 27.2394 27.9212 27.366 27.5503 27.7618L28.4841 27.2328ZM28.9427 26.9349L28.8717 27.2776M28.9427 26.9349C28.9426 26.9349 28.9425 26.9348 28.9425 26.9348L28.8717 27.2776M28.9427 26.9349C29.2356 26.9954 29.5661 27.1339 29.885 27.2676C29.9614 27.2997 30.0373 27.3315 30.1117 27.3618L30.4728 27.5091L30.2876 27.8522L28.1046 31.8959L28.0524 31.9927L27.9541 32.0422C27.2855 32.3792 26.4855 32.485 25.7523 32.4439C25.0219 32.403 24.3127 32.2137 23.8235 31.9145L23.745 31.8665L23.7003 31.786L21.4415 27.7233L21.2813 27.435L21.5595 27.2579C21.8981 27.0425 22.2585 26.9057 22.6253 26.8867L22.6253 26.8867C23.1363 26.8603 23.6421 27.0379 24.1876 27.5315L24.1884 27.5321L24.2918 27.6263M28.8717 27.2776C29.1069 27.3261 29.369 27.4317 29.6547 27.5509L29.6716 27.5197L29.9796 27.6859L29.8475 28.01C29.8357 28.0052 29.824 28.0004 29.8124 27.9957L27.7966 31.7297C26.5993 32.3331 24.8582 32.1371 24.0062 31.6159L21.7474 27.5532C21.8355 27.4972 21.9235 27.4482 22.0114 27.4065L22.0533 27.3832L22.0551 27.3863C22.2537 27.2974 22.4509 27.2462 22.6434 27.2362C23.0439 27.2155 23.4621 27.3471 23.9528 27.791L24.2784 28.0873M24.2918 27.6263L24.0583 27.8152L24.2784 28.0873M24.2918 27.6263L24.514 27.8284L24.2784 28.0873M24.2918 27.6263L24.401 27.5379L24.6212 27.81L24.2784 28.0873M13 14.65H12.65V15V19.3917V19.7007L12.9566 19.739C15.1716 20.0157 17.0348 20.9278 18.8298 22.0291L17.8468 22.8259L17.4285 23.165L17.9082 23.4096L23.5199 26.2713L24.2049 26.6207L24.0184 25.8746L22.478 19.7118L22.3448 19.1788L21.918 19.5248L20.8254 20.4105C19.7535 18.3346 18.5405 16.3621 16.9479 14.7537L16.8452 14.65H16.6992H13ZM28.2928 14.65H28.0846L27.9853 14.8329C27.1634 16.3461 26.4441 17.8871 25.779 19.458L24.3975 19.1648L23.8601 19.0508L23.9838 19.586L25.414 25.7748L25.5871 26.5239L26.0384 25.9014L29.7357 20.8015L30.0518 20.3655L29.525 20.2537L28.511 20.0385C30.2034 18.2972 31.9499 16.6623 33.975 15.2897L34.9188 14.65H33.7787H28.2928ZM39.5318 20.174V19.8004L39.159 19.8247C37.1175 19.9581 35.2908 20.8292 33.5649 21.9048L33.0304 20.5105L32.8337 19.9975L32.4519 20.3926L28.0377 24.96L27.5035 25.5128L28.2712 25.5528L34.5617 25.8801L35.0994 25.9081L34.9067 25.4053L34.3551 23.9665C35.9308 23.9607 37.4673 24.1733 39.0003 25.1028L39.5318 25.425V24.8035V20.174ZM23.1737 31.9193V32.3594C22.1636 33.1355 21.3846 34.3996 21.077 36.1648L21.077 36.1648C20.7593 37.9881 21.2598 39.2717 22.189 40.1522C23.105 41.0202 24.4547 41.4474 25.7974 41.43C27.1408 41.4125 28.501 40.9479 29.4308 40.0699C30.3731 39.1802 30.8911 37.9149 30.5988 36.1638L30.5988 36.1637C30.3035 34.3957 29.5339 33.1316 28.5272 32.3553L28.3489 32.2179L28.1499 32.3231C26.6943 33.0925 24.8609 32.927 23.7032 32.2355L23.1737 31.9193Z" fill="#24B254" stroke="#24B254" stroke-width="0.7"/>
</g>
<defs>
<filter id="filter0_d_4310_7832" x="0" y="0" width="65" height="64" filterUnits="userSpaceOnUse" color-interpolation-filters="sRGB">
<feFlood flood-opacity="0" result="BackgroundImageFix"/>
<feColorMatrix in="SourceAlpha" type="matrix" values="0 0 0 0 0 0 0 0 0 0 0 0 0 0 0 0 0 0 127 0" result="hardAlpha"/>
<feOffset dx="7" dy="3"/>
<feGaussianBlur stdDeviation="3"/>
<feComposite in2="hardAlpha" operator="out"/>
<feColorMatrix type="matrix" values="0 0 0 0 0.161667 0 0 0 0 0.161667 0 0 0 0 0.161667 0 0 0 0.54 0"/>
<feBlend mode="normal" in2="BackgroundImageFix" result="effect1_dropShadow_4310_7832"/>
<feBlend mode="normal" in="SourceGraphic" in2="effect1_dropShadow_4310_7832" result="shape"/>
</filter>
<clipPath id="clip0_4310_7832">
<rect width="28.2286" height="28.2286" fill="white" transform="translate(11.8857 14.1426)"/>
</clipPath>
</defs>
</svg>
