<svg width="30" height="31" viewBox="0 0 30 31" fill="none" xmlns="http://www.w3.org/2000/svg">
<path d="M20.25 3.83008H9.75C8.5125 3.83008 7.5 4.84258 7.5 6.08008V25.5801C7.5 26.8176 8.5125 27.8301 9.75 27.8301H20.25C21.4875 27.8301 22.5 26.8176 22.5 25.5801V6.08008C22.5 4.84258 21.4875 3.83008 20.25 3.83008ZM12 4.95508H18V5.70508H12V4.95508ZM15 26.3301C14.6022 26.3301 14.2206 26.172 13.9393 25.8907C13.658 25.6094 13.5 25.2279 13.5 24.8301C13.5 24.4323 13.658 24.0507 13.9393 23.7694C14.2206 23.4881 14.6022 23.3301 15 23.3301C15.3978 23.3301 15.7794 23.4881 16.0607 23.7694C16.342 24.0507 16.5 24.4323 16.5 24.8301C16.5 25.2279 16.342 25.6094 16.0607 25.8907C15.7794 26.172 15.3978 26.3301 15 26.3301ZM21 21.8301H9V6.83008H21V21.8301Z" fill="#EE7777"/>
</svg>
