<svg width="28" height="28" viewBox="0 0 28 28" fill="none" xmlns="http://www.w3.org/2000/svg">
<path d="M16.6884 7.25703C17.7989 9.33111 18.38 11.6473 18.38 14C18.38 16.3527 17.7989 18.6689 16.6884 20.743C16.6089 20.8978 16.4993 21.0353 16.3661 21.1474C16.2329 21.2595 16.0787 21.3439 15.9126 21.3959C15.7464 21.4478 15.5716 21.4662 15.3982 21.4499C15.2249 21.4336 15.0566 21.383 14.903 21.301C14.7494 21.219 14.6137 21.1073 14.5037 20.9724C14.3937 20.8374 14.3116 20.682 14.2623 20.515C14.213 20.348 14.1974 20.1729 14.2164 19.9999C14.2354 19.8268 14.2886 19.6593 14.373 19.507C15.2796 17.813 15.754 15.9214 15.754 14C15.754 12.0786 15.2796 10.187 14.373 8.49297C14.2853 8.34055 14.2292 8.17207 14.2079 7.99755C14.1867 7.82302 14.2007 7.646 14.2491 7.47699C14.2976 7.30798 14.3795 7.15044 14.4901 7.0137C14.6006 6.87696 14.7374 6.76383 14.8925 6.681C15.0476 6.59818 15.2178 6.54736 15.3929 6.53157C15.568 6.51577 15.7445 6.53532 15.9119 6.58904C16.0793 6.64277 16.2342 6.72959 16.3674 6.84433C16.5006 6.95908 16.6094 7.09943 16.6873 7.25703H16.6884ZM10.9769 8.46672C10.8243 8.54728 10.6891 8.65712 10.5791 8.78996C10.469 8.92281 10.3862 9.07605 10.3354 9.24092C10.2846 9.40579 10.2668 9.57906 10.2831 9.75081C10.2993 9.92257 10.3492 10.0894 10.43 10.2419C11.047 11.3984 11.3698 12.6891 11.3698 14C11.3698 15.3109 11.047 16.6016 10.43 17.7581C10.3455 17.9105 10.2921 18.0782 10.2731 18.2514C10.254 18.4246 10.2697 18.5999 10.3191 18.767C10.3685 18.9341 10.4507 19.0897 10.5608 19.2247C10.671 19.3597 10.8069 19.4714 10.9607 19.5533C11.1145 19.6352 11.2831 19.6857 11.4566 19.7018C11.6301 19.7178 11.8051 19.6992 11.9713 19.6469C12.1376 19.5947 12.2917 19.5098 12.4248 19.3974C12.5579 19.2849 12.6673 19.1471 12.7466 18.9919C13.5658 17.4555 13.9943 15.7411 13.9943 14C13.9943 12.2589 13.5658 10.5445 12.7466 9.00813C12.5829 8.70242 12.305 8.47388 11.9734 8.37244C11.6418 8.271 11.2836 8.30489 10.9769 8.46672ZM25.8125 14C25.8125 16.3363 25.1197 18.6201 23.8217 20.5627C22.5238 22.5052 20.6789 24.0193 18.5205 24.9133C16.362 25.8074 13.9869 26.0413 11.6955 25.5855C9.4041 25.1297 7.29931 24.0047 5.64731 22.3527C3.9953 20.7007 2.87027 18.5959 2.41448 16.3045C1.95869 14.0131 2.19262 11.638 3.08668 9.47955C3.98074 7.3211 5.49478 5.47624 7.43733 4.17827C9.37989 2.88029 11.6637 2.1875 14 2.1875C17.1318 2.19097 20.1343 3.43662 22.3489 5.65114C24.5634 7.86566 25.809 10.8682 25.8125 14ZM23.1875 14C23.1875 12.1829 22.6487 10.4066 21.6391 8.8957C20.6296 7.38482 19.1947 6.20724 17.5159 5.51186C15.8371 4.81648 13.9898 4.63453 12.2076 4.98904C10.4254 5.34354 8.78836 6.21856 7.50346 7.50346C6.21857 8.78835 5.34354 10.4254 4.98904 12.2076C4.63454 13.9898 4.81648 15.8371 5.51186 17.5159C6.20724 19.1947 7.38483 20.6296 8.8957 21.6391C10.4066 22.6487 12.1829 23.1875 14 23.1875C16.4359 23.1849 18.7712 22.2161 20.4937 20.4937C22.2161 18.7712 23.1849 16.4359 23.1875 14Z" fill="white"/>
</svg>
