<svg width="29" height="28" viewBox="0 0 29 28" fill="none" xmlns="http://www.w3.org/2000/svg">
<path d="M14.1583 2.67484C14.0501 2.56634 13.9216 2.48029 13.78 2.42163C13.6385 2.36297 13.4867 2.33285 13.3335 2.33301H7.50016C7.34694 2.33285 7.19519 2.36297 7.05364 2.42163C6.91209 2.48029 6.78353 2.56634 6.67533 2.67484L3.17533 6.17484C3.06678 6.283 2.9807 6.41156 2.92203 6.55312C2.86336 6.69468 2.83328 6.84644 2.8335 6.99967V12.833C2.8335 13.1433 2.956 13.4397 3.17533 13.6578L14.842 25.3245C14.9501 25.4332 15.0786 25.5195 15.2202 25.5784C15.3617 25.6372 15.5135 25.6675 15.6668 25.6675C15.8201 25.6675 15.9719 25.6372 16.1135 25.5784C16.255 25.5195 16.3836 25.4332 16.4917 25.3245L25.825 15.9912C25.9334 15.8829 26.0195 15.7544 26.0782 15.6128C26.1369 15.4713 26.1671 15.3196 26.1671 15.1663C26.1671 15.0131 26.1369 14.8614 26.0782 14.7199C26.0195 14.5783 25.9334 14.4498 25.825 14.3415L14.1583 2.67484ZM15.6668 22.85L5.16683 12.35V7.48268L7.98316 4.66634H12.8505L23.3505 15.1663L15.6668 22.85Z" fill="#CEA315"/>
<path d="M10.2452 11.6662C11.3064 11.6662 12.1667 10.806 12.1667 9.74474C12.1667 8.68353 11.3064 7.82324 10.2452 7.82324C9.18402 7.82324 8.32373 8.68353 8.32373 9.74474C8.32373 10.806 9.18402 11.6662 10.2452 11.6662Z" fill="#CEA315"/>
</svg>
