<svg width="23" height="24" viewBox="0 0 23 24" fill="none" xmlns="http://www.w3.org/2000/svg">
<path d="M19.6667 22.5H5.66667C4.42899 22.5 3.242 22.0083 2.36683 21.1332C1.49167 20.258 1 19.071 1 17.8333V3.83333C1 3.21449 1.24583 2.621 1.68342 2.18342C2.121 1.74583 2.71449 1.5 3.33333 1.5H15C15.6188 1.5 16.2123 1.74583 16.6499 2.18342C17.0875 2.621 17.3333 3.21449 17.3333 3.83333V19C17.3333 20.9332 17.7335 22.5 19.6667 22.5Z" stroke="white" stroke-width="2" stroke-linecap="round" stroke-linejoin="round"/>
<path d="M22.0002 9.66634C22.0002 9.0475 21.7543 8.45401 21.3167 8.01643C20.8792 7.57884 20.2857 7.33301 19.6668 7.33301H17.3335V19.583C17.3335 21.193 18.0568 22.4997 19.6668 22.4997C21.2768 22.4997 22.0002 21.193 22.0002 19.583V9.66634Z" stroke="white" stroke-width="2" stroke-linecap="round" stroke-linejoin="round"/>
<path d="M12.6665 10.8337H5.6665M12.6665 6.16699H5.6665M9.1665 15.5003H5.6665" stroke="white" stroke-width="2" stroke-linecap="round"/>
</svg>
