<svg width="28" height="28" viewBox="0 0 28 28" fill="none" xmlns="http://www.w3.org/2000/svg">
<g clip-path="url(#clip0_4465_8130)">
<path d="M16.3272 4.64258H11.6728C7.28526 4.64258 5.09151 4.64258 3.72767 6.00294C2.78749 6.93847 2.49615 8.26749 2.40445 10.4334C2.38704 10.8628 2.37776 11.0787 2.45785 11.2215C2.5391 11.3643 2.85829 11.5442 3.49901 11.9017C3.85991 12.1029 4.16054 12.3968 4.36982 12.7531C4.57911 13.1094 4.68945 13.5151 4.68945 13.9283C4.68945 14.3415 4.57911 14.7472 4.36982 15.1035C4.16054 15.4598 3.85991 15.7537 3.49901 15.9549C2.85829 16.3136 2.53794 16.4923 2.45785 16.6351C2.37776 16.7778 2.38704 16.9926 2.40561 17.422C2.49615 19.5891 2.78865 20.9181 3.72767 21.8537C5.09035 23.214 7.2841 23.214 11.6728 23.214H16.3272C20.7147 23.214 22.9085 23.214 24.2723 21.8537C25.2125 20.9181 25.5038 19.5891 25.5955 17.4232C25.6129 16.9937 25.6222 16.7778 25.5421 16.6351C25.4609 16.4923 25.1417 16.3136 24.501 15.9549C24.1401 15.7537 23.8394 15.4598 23.6302 15.1035C23.4209 14.7472 23.3105 14.3415 23.3105 13.9283C23.3105 13.5151 23.4209 13.1094 23.6302 12.7531C23.8394 12.3968 24.1401 12.1029 24.501 11.9017C25.1417 11.5442 25.462 11.3643 25.5421 11.2215C25.6222 11.0787 25.6129 10.864 25.5944 10.4334C25.5038 8.26749 25.2113 6.93963 24.2723 6.00294C22.9096 4.64258 20.7159 4.64258 16.3272 4.64258Z" stroke="#373276" stroke-width="3"/>
<path d="M10.5181 17.4106L17.4824 10.4463L10.5181 17.4106Z" fill="#373276"/>
<path d="M10.5181 17.4106L17.4824 10.4463" stroke="#373276" stroke-width="3" stroke-linecap="round"/>
<path d="M18.0625 16.8305C18.0625 17.1383 17.9402 17.4336 17.7225 17.6512C17.5049 17.8689 17.2096 17.9912 16.9018 17.9912C16.5939 17.9912 16.2987 17.8689 16.081 17.6512C15.8634 17.4336 15.7411 17.1383 15.7411 16.8305C15.7411 16.5227 15.8634 16.2274 16.081 16.0098C16.2987 15.7921 16.5939 15.6698 16.9018 15.6698C17.2096 15.6698 17.5049 15.7921 17.7225 16.0098C17.9402 16.2274 18.0625 16.5227 18.0625 16.8305ZM12.2589 11.0269C12.2589 11.3348 12.1366 11.63 11.919 11.8477C11.7013 12.0654 11.4061 12.1876 11.0982 12.1876C10.7904 12.1876 10.4951 12.0654 10.2775 11.8477C10.0598 11.63 9.9375 11.3348 9.9375 11.0269C9.9375 10.7191 10.0598 10.4239 10.2775 10.2062C10.4951 9.9885 10.7904 9.86621 11.0982 9.86621C11.4061 9.86621 11.7013 9.9885 11.919 10.2062C12.1366 10.4239 12.2589 10.7191 12.2589 11.0269Z" fill="#373276"/>
</g>
<defs>
<clipPath id="clip0_4465_8130">
<rect width="27.8571" height="27.8571" fill="white" transform="translate(0.0712891)"/>
</clipPath>
</defs>
</svg>
