<svg width="181" height="146" viewBox="0 0 181 146" fill="none" xmlns="http://www.w3.org/2000/svg">
<rect y="0.335938" width="181" height="145" rx="10" fill="#EFEFEF"/>
<path d="M62.7849 57.5088C62.7849 54.5886 63.945 51.7879 66.0099 49.723C68.0748 47.6581 70.8754 46.498 73.7957 46.498H106.828C109.748 46.498 112.549 47.6581 114.614 49.723C116.679 51.7879 117.839 54.5886 117.839 57.5088V90.5411C117.839 93.4613 116.679 96.2619 114.614 98.3268C112.549 100.392 109.748 101.552 106.828 101.552H73.7957C70.8754 101.552 68.0748 100.392 66.0099 98.3268C63.945 96.2619 62.7849 93.4613 62.7849 90.5411V57.5088Z" fill="white" stroke="#757575" stroke-width="3" stroke-linecap="round" stroke-linejoin="round"/>
<path d="M80.6774 71.2732C84.478 71.2732 87.5591 68.1922 87.5591 64.3915C87.5591 60.5908 84.478 57.5098 80.6774 57.5098C76.8767 57.5098 73.7957 60.5908 73.7957 64.3915C73.7957 68.1922 76.8767 71.2732 80.6774 71.2732Z" stroke="#757575" stroke-width="3" stroke-linecap="round" stroke-linejoin="round"/>
<path d="M97.2651 75.7352L73.7957 101.553H107.194C110.017 101.553 112.725 100.431 114.721 98.4349C116.717 96.4387 117.839 93.7312 117.839 90.908V90.5419C117.839 89.2592 117.357 88.7665 116.49 87.8168L105.397 75.7187C104.879 75.1547 104.251 74.7047 103.55 74.3973C102.849 74.09 102.092 73.9321 101.327 73.9336C100.562 73.9352 99.8057 74.0962 99.1063 74.4064C98.4069 74.7166 97.7798 75.1691 97.2651 75.7352Z" stroke="#757575" stroke-width="3" stroke-linecap="round" stroke-linejoin="round"/>
</svg>
