<svg width="22" height="22" viewBox="0 0 22 22" fill="none" xmlns="http://www.w3.org/2000/svg">
<mask id="path-1-inside-1_3727_9883" fill="white">
<path fill-rule="evenodd" clip-rule="evenodd" d="M3.04615 0H2.96154C2.574 0 2.24062 1.26087e-08 1.94615 0.0693846C1.49031 0.17831 1.07352 0.411309 0.741959 0.742567C0.410403 1.07382 0.177028 1.49041 0.0676922 1.94615C-6.30434e-08 2.24062 0 2.57231 0 2.96154V7.19231C0 7.57985 1.26087e-08 7.91323 0.0693846 8.20769C0.17831 8.66354 0.411309 9.08033 0.742567 9.41189C1.07382 9.74344 1.49041 9.97682 1.94615 10.0862C2.24062 10.1538 2.57231 10.1538 2.96154 10.1538H7.19231C7.57985 10.1538 7.91323 10.1538 8.20769 10.0845C8.66354 9.97554 9.08033 9.74254 9.41189 9.41128C9.74344 9.08002 9.97682 8.66344 10.0862 8.20769C10.1538 7.91323 10.1538 7.58154 10.1538 7.19231V2.96154C10.1538 2.574 10.1538 2.24062 10.0845 1.94615C9.97554 1.49031 9.74254 1.07352 9.41128 0.74196C9.08002 0.410403 8.66344 0.177028 8.20769 0.0676923C7.91323 -6.30434e-08 7.58154 0 7.19231 0H7.10769H3.04615ZM2.34046 1.716C2.41323 1.69908 2.52662 1.69231 3.04615 1.69231H7.10769C7.62892 1.69231 7.74062 1.69738 7.81339 1.716C7.9654 1.75235 8.10438 1.8301 8.21491 1.94063C8.32543 2.05115 8.40318 2.19013 8.43954 2.34215C8.45646 2.41323 8.46154 2.52492 8.46154 3.04615V7.10769C8.46154 7.62892 8.45646 7.74062 8.43785 7.81339C8.40149 7.96541 8.32374 8.10438 8.21322 8.21491C8.10269 8.32543 7.96371 8.40319 7.81169 8.43954C7.74231 8.45477 7.63062 8.46154 7.10769 8.46154H3.04615C2.52492 8.46154 2.41323 8.45646 2.34046 8.43785C2.18844 8.40149 2.04946 8.32374 1.93894 8.21322C1.82841 8.10269 1.75066 7.96371 1.71431 7.81169C1.69908 7.74231 1.69231 7.63062 1.69231 7.10769V3.04615C1.69231 2.52492 1.69738 2.41323 1.716 2.34046C1.75235 2.18844 1.8301 2.04946 1.94063 1.93894C2.05115 1.82841 2.19013 1.75066 2.34215 1.71431M14.8923 0H14.8077C14.4202 0 14.0868 1.26087e-08 13.7923 0.0693846C13.3365 0.17831 12.9197 0.411309 12.5881 0.742567C12.2566 1.07382 12.0232 1.49041 11.9138 1.94615C11.8462 2.24062 11.8462 2.57231 11.8462 2.96154V7.19231C11.8462 7.57985 11.8462 7.91323 11.9155 8.20769C12.0245 8.66354 12.2575 9.08033 12.5887 9.41189C12.92 9.74344 13.3366 9.97682 13.7923 10.0862C14.0868 10.1538 14.4185 10.1538 14.8077 10.1538H19.0385C19.426 10.1538 19.7594 10.1538 20.0538 10.0845C20.5097 9.97554 20.9265 9.74254 21.258 9.41128C21.5896 9.08002 21.823 8.66344 21.9323 8.20769C22 7.91323 22 7.58154 22 7.19231V2.96154C22 2.574 22 2.24062 21.9306 1.94615C21.8217 1.49031 21.5887 1.07352 21.2574 0.74196C20.9262 0.410403 20.5096 0.177028 20.0538 0.0676923C19.7594 -6.30434e-08 19.4277 0 19.0385 0H18.9538H14.8923ZM14.1866 1.716C14.2594 1.69908 14.3728 1.69231 14.8923 1.69231H18.9538C19.4751 1.69231 19.5868 1.69738 19.6595 1.716C19.8116 1.75235 19.9505 1.8301 20.0611 1.94063C20.1716 2.05115 20.2493 2.19013 20.2857 2.34215C20.3026 2.41323 20.3077 2.52492 20.3077 3.04615V7.10769C20.3077 7.62892 20.3009 7.74062 20.284 7.81339C20.2476 7.96541 20.1699 8.10438 20.0594 8.21491C19.9488 8.32543 19.8099 8.40319 19.6578 8.43954C19.5868 8.45646 19.4751 8.46154 18.9538 8.46154H14.8923C14.3711 8.46154 14.2594 8.45646 14.1866 8.43785C14.0346 8.40149 13.8956 8.32374 13.7851 8.21322C13.6746 8.10269 13.5968 7.96371 13.5605 7.81169C13.5452 7.74231 13.5385 7.63062 13.5385 7.10769V3.04615C13.5385 2.52492 13.5435 2.41323 13.5622 2.34046C13.5985 2.18844 13.6763 2.04946 13.7868 1.93894C13.8973 1.82841 14.0363 1.75066 14.1883 1.71431M2.96154 11.8462H7.19231C7.57985 11.8462 7.91323 11.8462 8.20769 11.9155C8.66354 12.0245 9.08033 12.2575 9.41189 12.5887C9.74344 12.92 9.97682 13.3366 10.0862 13.7923C10.1538 14.0868 10.1538 14.4185 10.1538 14.8077V19.0385C10.1538 19.426 10.1538 19.7594 10.0845 20.0539C9.97554 20.5097 9.74254 20.9265 9.41128 21.258C9.08002 21.5896 8.66344 21.823 8.20769 21.9323C7.91323 22 7.58154 22 7.19231 22H2.96154C2.574 22 2.24062 22 1.94615 21.9306C1.49031 21.8217 1.07352 21.5887 0.741959 21.2574C0.410403 20.9262 0.177028 20.5096 0.0676922 20.0539C-6.30434e-08 19.7594 0 19.4277 0 19.0385V14.8077C0 14.4202 1.26087e-08 14.0868 0.0693846 13.7923C0.17831 13.3365 0.411309 12.9197 0.742567 12.5881C1.07382 12.2566 1.49041 12.0232 1.94615 11.9138C2.24062 11.8462 2.57231 11.8462 2.96154 11.8462ZM3.04615 13.5385C2.52492 13.5385 2.41323 13.5435 2.34046 13.5622C2.18844 13.5985 2.04946 13.6763 1.93894 13.7868C1.82841 13.8973 1.75066 14.0363 1.71431 14.1883C1.69908 14.2577 1.69231 14.3694 1.69231 14.8923V18.9538C1.69231 19.4751 1.69738 19.5868 1.716 19.6595C1.75235 19.8116 1.8301 19.9505 1.94063 20.0611C2.05115 20.1716 2.19013 20.2493 2.34215 20.2857C2.41323 20.3026 2.52492 20.3077 3.04615 20.3077H7.10769C7.62892 20.3077 7.74062 20.3009 7.81339 20.284C7.9654 20.2477 8.10438 20.1699 8.21491 20.0594C8.32543 19.9488 8.40318 19.8099 8.43954 19.6579C8.45646 19.5868 8.46154 19.4751 8.46154 18.9538V14.8923C8.46154 14.3711 8.45646 14.2594 8.43785 14.1866C8.40149 14.0346 8.32374 13.8956 8.21322 13.7851C8.10269 13.6746 7.96371 13.5968 7.81169 13.5605C7.74231 13.5452 7.63062 13.5385 7.10769 13.5385H3.04615ZM14.8923 11.8462H14.8077C14.4202 11.8462 14.0868 11.8462 13.7923 11.9155C13.3365 12.0245 12.9197 12.2575 12.5881 12.5887C12.2566 12.92 12.0232 13.3366 11.9138 13.7923C11.8462 14.0868 11.8462 14.4185 11.8462 14.8077V19.0385C11.8462 19.426 11.8462 19.7594 11.9155 20.0539C12.0245 20.5097 12.2575 20.9265 12.5887 21.258C12.92 21.5896 13.3366 21.823 13.7923 21.9323C14.0868 22.0017 14.4202 22.0017 14.8077 22.0017H19.0385C19.426 22.0017 19.7594 22.0017 20.0538 21.9323C20.5094 21.8231 20.9258 21.59 21.2571 21.2588C21.5883 20.9275 21.8214 20.5111 21.9306 20.0555C22 19.7611 22 19.4277 22 19.0402V14.8077C22 14.4202 22 14.0868 21.9306 13.7923C21.8217 13.3365 21.5887 12.9197 21.2574 12.5881C20.9262 12.2566 20.5096 12.0232 20.0538 11.9138C19.7594 11.8462 19.4277 11.8462 19.0385 11.8462H18.9538H14.8923ZM14.1866 13.5622C14.2594 13.5452 14.3728 13.5385 14.8923 13.5385H18.9538C19.4751 13.5385 19.5868 13.5435 19.6595 13.5622C19.8116 13.5985 19.9505 13.6763 20.0611 13.7868C20.1716 13.8973 20.2493 14.0363 20.2857 14.1883C20.3026 14.2594 20.3077 14.3711 20.3077 14.8923V18.9538C20.3077 19.4751 20.3009 19.5868 20.284 19.6595C20.2476 19.8116 20.1699 19.9505 20.0594 20.0611C19.9488 20.1716 19.8099 20.2493 19.6578 20.2857C19.5868 20.3026 19.4751 20.3077 18.9538 20.3077H14.8923C14.3711 20.3077 14.2594 20.3009 14.1866 20.284C14.0346 20.2477 13.8956 20.1699 13.7851 20.0594C13.6746 19.9488 13.5968 19.8099 13.5605 19.6579C13.5452 19.5885 13.5385 19.4768 13.5385 18.9538V14.8923C13.5385 14.3711 13.5435 14.2594 13.5622 14.1866C13.5985 14.0346 13.6763 13.8956 13.7868 13.7851C13.8973 13.6746 14.0363 13.5968 14.1883 13.5605"/>
</mask>
<path fill-rule="evenodd" clip-rule="evenodd" d="M3.04615 0H2.96154C2.574 0 2.24062 1.26087e-08 1.94615 0.0693846C1.49031 0.17831 1.07352 0.411309 0.741959 0.742567C0.410403 1.07382 0.177028 1.49041 0.0676922 1.94615C-6.30434e-08 2.24062 0 2.57231 0 2.96154V7.19231C0 7.57985 1.26087e-08 7.91323 0.0693846 8.20769C0.17831 8.66354 0.411309 9.08033 0.742567 9.41189C1.07382 9.74344 1.49041 9.97682 1.94615 10.0862C2.24062 10.1538 2.57231 10.1538 2.96154 10.1538H7.19231C7.57985 10.1538 7.91323 10.1538 8.20769 10.0845C8.66354 9.97554 9.08033 9.74254 9.41189 9.41128C9.74344 9.08002 9.97682 8.66344 10.0862 8.20769C10.1538 7.91323 10.1538 7.58154 10.1538 7.19231V2.96154C10.1538 2.574 10.1538 2.24062 10.0845 1.94615C9.97554 1.49031 9.74254 1.07352 9.41128 0.74196C9.08002 0.410403 8.66344 0.177028 8.20769 0.0676923C7.91323 -6.30434e-08 7.58154 0 7.19231 0H7.10769H3.04615ZM2.34046 1.716C2.41323 1.69908 2.52662 1.69231 3.04615 1.69231H7.10769C7.62892 1.69231 7.74062 1.69738 7.81339 1.716C7.9654 1.75235 8.10438 1.8301 8.21491 1.94063C8.32543 2.05115 8.40318 2.19013 8.43954 2.34215C8.45646 2.41323 8.46154 2.52492 8.46154 3.04615V7.10769C8.46154 7.62892 8.45646 7.74062 8.43785 7.81339C8.40149 7.96541 8.32374 8.10438 8.21322 8.21491C8.10269 8.32543 7.96371 8.40319 7.81169 8.43954C7.74231 8.45477 7.63062 8.46154 7.10769 8.46154H3.04615C2.52492 8.46154 2.41323 8.45646 2.34046 8.43785C2.18844 8.40149 2.04946 8.32374 1.93894 8.21322C1.82841 8.10269 1.75066 7.96371 1.71431 7.81169C1.69908 7.74231 1.69231 7.63062 1.69231 7.10769V3.04615C1.69231 2.52492 1.69738 2.41323 1.716 2.34046C1.75235 2.18844 1.8301 2.04946 1.94063 1.93894C2.05115 1.82841 2.19013 1.75066 2.34215 1.71431M14.8923 0H14.8077C14.4202 0 14.0868 1.26087e-08 13.7923 0.0693846C13.3365 0.17831 12.9197 0.411309 12.5881 0.742567C12.2566 1.07382 12.0232 1.49041 11.9138 1.94615C11.8462 2.24062 11.8462 2.57231 11.8462 2.96154V7.19231C11.8462 7.57985 11.8462 7.91323 11.9155 8.20769C12.0245 8.66354 12.2575 9.08033 12.5887 9.41189C12.92 9.74344 13.3366 9.97682 13.7923 10.0862C14.0868 10.1538 14.4185 10.1538 14.8077 10.1538H19.0385C19.426 10.1538 19.7594 10.1538 20.0538 10.0845C20.5097 9.97554 20.9265 9.74254 21.258 9.41128C21.5896 9.08002 21.823 8.66344 21.9323 8.20769C22 7.91323 22 7.58154 22 7.19231V2.96154C22 2.574 22 2.24062 21.9306 1.94615C21.8217 1.49031 21.5887 1.07352 21.2574 0.74196C20.9262 0.410403 20.5096 0.177028 20.0538 0.0676923C19.7594 -6.30434e-08 19.4277 0 19.0385 0H18.9538H14.8923ZM14.1866 1.716C14.2594 1.69908 14.3728 1.69231 14.8923 1.69231H18.9538C19.4751 1.69231 19.5868 1.69738 19.6595 1.716C19.8116 1.75235 19.9505 1.8301 20.0611 1.94063C20.1716 2.05115 20.2493 2.19013 20.2857 2.34215C20.3026 2.41323 20.3077 2.52492 20.3077 3.04615V7.10769C20.3077 7.62892 20.3009 7.74062 20.284 7.81339C20.2476 7.96541 20.1699 8.10438 20.0594 8.21491C19.9488 8.32543 19.8099 8.40319 19.6578 8.43954C19.5868 8.45646 19.4751 8.46154 18.9538 8.46154H14.8923C14.3711 8.46154 14.2594 8.45646 14.1866 8.43785C14.0346 8.40149 13.8956 8.32374 13.7851 8.21322C13.6746 8.10269 13.5968 7.96371 13.5605 7.81169C13.5452 7.74231 13.5385 7.63062 13.5385 7.10769V3.04615C13.5385 2.52492 13.5435 2.41323 13.5622 2.34046C13.5985 2.18844 13.6763 2.04946 13.7868 1.93894C13.8973 1.82841 14.0363 1.75066 14.1883 1.71431M2.96154 11.8462H7.19231C7.57985 11.8462 7.91323 11.8462 8.20769 11.9155C8.66354 12.0245 9.08033 12.2575 9.41189 12.5887C9.74344 12.92 9.97682 13.3366 10.0862 13.7923C10.1538 14.0868 10.1538 14.4185 10.1538 14.8077V19.0385C10.1538 19.426 10.1538 19.7594 10.0845 20.0539C9.97554 20.5097 9.74254 20.9265 9.41128 21.258C9.08002 21.5896 8.66344 21.823 8.20769 21.9323C7.91323 22 7.58154 22 7.19231 22H2.96154C2.574 22 2.24062 22 1.94615 21.9306C1.49031 21.8217 1.07352 21.5887 0.741959 21.2574C0.410403 20.9262 0.177028 20.5096 0.0676922 20.0539C-6.30434e-08 19.7594 0 19.4277 0 19.0385V14.8077C0 14.4202 1.26087e-08 14.0868 0.0693846 13.7923C0.17831 13.3365 0.411309 12.9197 0.742567 12.5881C1.07382 12.2566 1.49041 12.0232 1.94615 11.9138C2.24062 11.8462 2.57231 11.8462 2.96154 11.8462ZM3.04615 13.5385C2.52492 13.5385 2.41323 13.5435 2.34046 13.5622C2.18844 13.5985 2.04946 13.6763 1.93894 13.7868C1.82841 13.8973 1.75066 14.0363 1.71431 14.1883C1.69908 14.2577 1.69231 14.3694 1.69231 14.8923V18.9538C1.69231 19.4751 1.69738 19.5868 1.716 19.6595C1.75235 19.8116 1.8301 19.9505 1.94063 20.0611C2.05115 20.1716 2.19013 20.2493 2.34215 20.2857C2.41323 20.3026 2.52492 20.3077 3.04615 20.3077H7.10769C7.62892 20.3077 7.74062 20.3009 7.81339 20.284C7.9654 20.2477 8.10438 20.1699 8.21491 20.0594C8.32543 19.9488 8.40318 19.8099 8.43954 19.6579C8.45646 19.5868 8.46154 19.4751 8.46154 18.9538V14.8923C8.46154 14.3711 8.45646 14.2594 8.43785 14.1866C8.40149 14.0346 8.32374 13.8956 8.21322 13.7851C8.10269 13.6746 7.96371 13.5968 7.81169 13.5605C7.74231 13.5452 7.63062 13.5385 7.10769 13.5385H3.04615ZM14.8923 11.8462H14.8077C14.4202 11.8462 14.0868 11.8462 13.7923 11.9155C13.3365 12.0245 12.9197 12.2575 12.5881 12.5887C12.2566 12.92 12.0232 13.3366 11.9138 13.7923C11.8462 14.0868 11.8462 14.4185 11.8462 14.8077V19.0385C11.8462 19.426 11.8462 19.7594 11.9155 20.0539C12.0245 20.5097 12.2575 20.9265 12.5887 21.258C12.92 21.5896 13.3366 21.823 13.7923 21.9323C14.0868 22.0017 14.4202 22.0017 14.8077 22.0017H19.0385C19.426 22.0017 19.7594 22.0017 20.0538 21.9323C20.5094 21.8231 20.9258 21.59 21.2571 21.2588C21.5883 20.9275 21.8214 20.5111 21.9306 20.0555C22 19.7611 22 19.4277 22 19.0402V14.8077C22 14.4202 22 14.0868 21.9306 13.7923C21.8217 13.3365 21.5887 12.9197 21.2574 12.5881C20.9262 12.2566 20.5096 12.0232 20.0538 11.9138C19.7594 11.8462 19.4277 11.8462 19.0385 11.8462H18.9538H14.8923ZM14.1866 13.5622C14.2594 13.5452 14.3728 13.5385 14.8923 13.5385H18.9538C19.4751 13.5385 19.5868 13.5435 19.6595 13.5622C19.8116 13.5985 19.9505 13.6763 20.0611 13.7868C20.1716 13.8973 20.2493 14.0363 20.2857 14.1883C20.3026 14.2594 20.3077 14.3711 20.3077 14.8923V18.9538C20.3077 19.4751 20.3009 19.5868 20.284 19.6595C20.2476 19.8116 20.1699 19.9505 20.0594 20.0611C19.9488 20.1716 19.8099 20.2493 19.6578 20.2857C19.5868 20.3026 19.4751 20.3077 18.9538 20.3077H14.8923C14.3711 20.3077 14.2594 20.3009 14.1866 20.284C14.0346 20.2477 13.8956 20.1699 13.7851 20.0594C13.6746 19.9488 13.5968 19.8099 13.5605 19.6579C13.5452 19.5885 13.5385 19.4768 13.5385 18.9538V14.8923C13.5385 14.3711 13.5435 14.2594 13.5622 14.1866C13.5985 14.0346 13.6763 13.8956 13.7868 13.7851C13.8973 13.6746 14.0363 13.5968 14.1883 13.5605" fill="white"/>
<path d="M1.94615 0.0693846L1.90028 -0.125285L1.89967 -0.125139L1.94615 0.0693846ZM0.0676922 1.94615L-0.126798 1.8995L-0.127224 1.90135L0.0676922 1.94615ZM0.0693846 8.20769L-0.125285 8.25356L-0.125139 8.25418L0.0693846 8.20769ZM1.94615 10.0862L1.89949 10.2806L1.90135 10.2811L1.94615 10.0862ZM8.20769 10.0845L8.25356 10.2791L8.25417 10.279L8.20769 10.0845ZM10.0862 8.20769L10.2806 8.25435L10.2811 8.2525L10.0862 8.20769ZM10.0845 1.94615L10.2791 1.90028L10.279 1.89967L10.0845 1.94615ZM8.20769 0.0676923L8.25435 -0.126798L8.2525 -0.127224L8.20769 0.0676923ZM7.81339 1.716L7.76381 1.90978L7.76687 1.91052L7.81339 1.716ZM8.43954 2.34215L8.6341 2.29583L8.63405 2.29564L8.43954 2.34215ZM8.43785 7.81339L8.24406 7.76381L8.24333 7.76687L8.43785 7.81339ZM7.81169 8.43954L7.85458 8.63492L7.85821 8.63406L7.81169 8.43954ZM2.34046 8.43785L2.39003 8.24406L2.38698 8.24333L2.34046 8.43785ZM1.71431 7.81169L1.51892 7.85458L1.51979 7.85821L1.71431 7.81169ZM1.716 2.34046L1.90978 2.39003L1.91052 2.38698L1.716 2.34046ZM13.7923 0.0693846L13.7464 -0.125285L13.7458 -0.125139L13.7923 0.0693846ZM11.9138 1.94615L11.7194 1.8995L11.7189 1.90135L11.9138 1.94615ZM11.9155 8.20769L11.7209 8.25356L11.721 8.25418L11.9155 8.20769ZM13.7923 10.0862L13.7456 10.2806L13.7475 10.2811L13.7923 10.0862ZM20.0538 10.0845L20.0997 10.2791L20.1003 10.279L20.0538 10.0845ZM21.9323 8.20769L22.1268 8.25435L22.1272 8.2525L21.9323 8.20769ZM21.9306 1.94615L22.1253 1.90028L22.1251 1.89967L21.9306 1.94615ZM20.0538 0.0676923L20.1005 -0.126798L20.0987 -0.127224L20.0538 0.0676923ZM19.6595 1.716L19.61 1.90978L19.613 1.91052L19.6595 1.716ZM20.2857 2.34215L20.4803 2.29583L20.4802 2.29564L20.2857 2.34215ZM20.284 7.81339L20.4785 7.8599L20.4788 7.85869L20.284 7.81339ZM19.6578 8.43954L19.7042 8.6341L19.7044 8.63406L19.6578 8.43954ZM14.1866 8.43785L14.2362 8.24406L14.2331 8.24333L14.1866 8.43785ZM13.5605 7.81169L13.3651 7.85458L13.3659 7.85821L13.5605 7.81169ZM13.5622 2.34046L13.7559 2.39003L13.7567 2.38698L13.5622 2.34046ZM8.20769 11.9155L8.25417 11.721L8.25356 11.7209L8.20769 11.9155ZM10.0862 13.7923L10.2811 13.7475L10.2806 13.7457L10.0862 13.7923ZM10.0845 20.0539L10.279 20.1003L10.2791 20.0997L10.0845 20.0539ZM8.20769 21.9323L8.2525 22.1272L8.25435 22.1268L8.20769 21.9323ZM1.94615 21.9306L1.89967 22.1251L1.90028 22.1253L1.94615 21.9306ZM0.0676922 20.0539L-0.127232 20.0987L-0.126789 20.1005L0.0676922 20.0539ZM0.0693846 13.7923L-0.12514 13.7458L-0.125284 13.7464L0.0693846 13.7923ZM1.94615 11.9138L1.90134 11.7189L1.8995 11.7194L1.94615 11.9138ZM2.34046 13.5622L2.38698 13.7567L2.39003 13.7559L2.34046 13.5622ZM1.71431 14.1883L1.51976 14.1418L1.51896 14.1454L1.71431 14.1883ZM1.716 19.6595L1.91054 19.613L1.90976 19.61L1.716 19.6595ZM2.34215 20.2857L2.29564 20.4802L2.29583 20.4803L2.34215 20.2857ZM7.81339 20.284L7.85869 20.4788L7.8599 20.4785L7.81339 20.284ZM8.43954 19.6579L8.63405 19.7044L8.6341 19.7042L8.43954 19.6579ZM8.43785 14.1866L8.24331 14.2331L8.24409 14.2362L8.43785 14.1866ZM7.81169 13.5605L7.85822 13.3659L7.85457 13.3651L7.81169 13.5605ZM13.7923 11.9155L13.7464 11.7209L13.7458 11.721L13.7923 11.9155ZM11.9138 13.7923L11.7194 13.7457L11.7189 13.7475L11.9138 13.7923ZM11.9155 20.0539L11.7209 20.0997L11.721 20.1003L11.9155 20.0539ZM13.7923 21.9323L13.7457 22.1268L13.7464 22.127L13.7923 21.9323ZM20.0538 21.9323L20.0997 22.127L20.1005 22.1268L20.0538 21.9323ZM21.9306 20.0555L22.1251 20.1022L22.1253 20.1014L21.9306 20.0555ZM21.9306 13.7923L22.1253 13.7464L22.1251 13.7458L21.9306 13.7923ZM20.0538 11.9138L20.1005 11.7194L20.0987 11.7189L20.0538 11.9138ZM19.6595 13.5622L19.61 13.7559L19.613 13.7567L19.6595 13.5622ZM20.2857 14.1883L20.4803 14.142L20.4802 14.1418L20.2857 14.1883ZM20.284 19.6595L20.4785 19.7061L20.4788 19.7048L20.284 19.6595ZM19.6578 20.2857L19.7042 20.4803L19.7044 20.4802L19.6578 20.2857ZM14.1866 20.284L14.1401 20.4785L14.1413 20.4788L14.1866 20.284ZM13.5605 19.6579L13.3651 19.7007L13.3659 19.7044L13.5605 19.6579ZM13.5622 14.1866L13.7559 14.2362L13.7567 14.2331L13.5622 14.1866ZM3.04615 -0.2H2.96154V0.2H3.04615V-0.2ZM2.96154 -0.2C2.58058 -0.2 2.22192 -0.201073 1.90028 -0.125284L1.99202 0.264053C2.25931 0.201073 2.56742 0.2 2.96154 0.2V-0.2ZM1.89967 -0.125139C1.40791 -0.00763187 0.95828 0.243725 0.600602 0.601082L0.883317 0.884052C1.18875 0.578893 1.5727 0.364251 1.99264 0.263908L1.89967 -0.125139ZM0.600602 0.601082C0.242923 0.958438 -0.00883913 1.40784 -0.126789 1.8995L0.262174 1.99281C0.362896 1.57297 0.577884 1.18921 0.883317 0.884052L0.600602 0.601082ZM-0.127224 1.90135C-0.201023 2.22237 -0.2 2.57872 -0.2 2.96154H0.2C0.2 2.56589 0.201023 2.25886 0.262608 1.99096L-0.127224 1.90135ZM-0.2 2.96154V7.19231H0.2V2.96154H-0.2ZM-0.2 7.19231C-0.2 7.57327 -0.201073 7.93192 -0.125284 8.25356L0.264053 8.16182C0.201073 7.89454 0.2 7.58643 0.2 7.19231H-0.2ZM-0.125139 8.25418C-0.00763189 8.74594 0.243725 9.19557 0.601082 9.55325L0.884052 9.27053C0.578893 8.9651 0.364251 8.58114 0.263908 8.16121L-0.125139 8.25418ZM0.601082 9.55325C0.958438 9.91092 1.40784 10.1627 1.8995 10.2806L1.99281 9.89167C1.57297 9.79095 1.18921 9.57596 0.884052 9.27053L0.601082 9.55325ZM1.90135 10.2811C2.22237 10.3549 2.57872 10.3538 2.96154 10.3538V9.95385C2.56589 9.95385 2.25886 9.95283 1.99096 9.89124L1.90135 10.2811ZM2.96154 10.3538H7.19231V9.95385H2.96154V10.3538ZM7.19231 10.3538C7.57326 10.3538 7.93192 10.3549 8.25356 10.2791L8.16182 9.88979C7.89454 9.95278 7.58643 9.95385 7.19231 9.95385V10.3538ZM8.25417 10.279C8.74594 10.1615 9.19557 9.91012 9.55324 9.55277L9.27053 9.2698C8.9651 9.57495 8.58114 9.7896 8.16121 9.88994L8.25417 10.279ZM9.55324 9.55277C9.91092 9.19541 10.1627 8.74601 10.2806 8.25435L9.89167 8.16104C9.79095 8.58088 9.57596 8.96464 9.27053 9.2698L9.55324 9.55277ZM10.2811 8.2525C10.3549 7.93148 10.3538 7.57513 10.3538 7.19231H9.95385C9.95385 7.58795 9.95282 7.89499 9.89124 8.16288L10.2811 8.2525ZM10.3538 7.19231V2.96154H9.95385V7.19231H10.3538ZM10.3538 2.96154C10.3538 2.58058 10.3549 2.22192 10.2791 1.90028L9.88979 1.99202C9.95277 2.25931 9.95385 2.56742 9.95385 2.96154H10.3538ZM10.279 1.89967C10.1615 1.40791 9.91012 0.958281 9.55276 0.600602L9.26979 0.883317C9.57495 1.18875 9.78959 1.5727 9.88994 1.99264L10.279 1.89967ZM9.55276 0.600602C9.19541 0.242923 8.74601 -0.00883909 8.25435 -0.126789L8.16104 0.262174C8.58088 0.362896 8.96464 0.577884 9.26979 0.883317L9.55276 0.600602ZM8.2525 -0.127224C7.93148 -0.201023 7.57513 -0.2 7.19231 -0.2V0.2C7.58795 0.2 7.89499 0.201023 8.16288 0.262608L8.2525 -0.127224ZM7.19231 -0.2H7.10769V0.2H7.19231V-0.2ZM7.10769 -0.2H3.04615V0.2H7.10769V-0.2ZM2.38576 1.9108C2.43031 1.90044 2.51425 1.89231 3.04615 1.89231V1.49231C2.53898 1.49231 2.39615 1.49771 2.29516 1.5212L2.38576 1.9108ZM3.04615 1.89231H7.10769V1.49231H3.04615V1.89231ZM7.10769 1.89231C7.3688 1.89231 7.52357 1.8936 7.62168 1.89705C7.72074 1.90054 7.74914 1.90601 7.76382 1.90976L7.86295 1.52224C7.80486 1.50738 7.74103 1.501 7.63575 1.4973C7.5295 1.49356 7.36781 1.49231 7.10769 1.49231V1.89231ZM7.76687 1.91052C7.88296 1.93828 7.98909 1.99765 8.07349 2.08205L8.35633 1.79921C8.21968 1.66256 8.04785 1.56643 7.8599 1.52148L7.76687 1.91052ZM8.07349 2.08205C8.15789 2.16645 8.21726 2.27258 8.24502 2.38867L8.63405 2.29564C8.58911 2.10769 8.49298 1.93586 8.35633 1.79921L8.07349 2.08205ZM8.24498 2.38848C8.24859 2.40364 8.2537 2.43276 8.257 2.53198C8.26025 2.63013 8.26154 2.78515 8.26154 3.04615H8.66154C8.66154 2.78592 8.66029 2.62448 8.65677 2.51871C8.6533 2.41401 8.64741 2.35175 8.6341 2.29583L8.24498 2.38848ZM8.26154 3.04615V7.10769H8.66154V3.04615H8.26154ZM8.26154 7.10769C8.26154 7.3688 8.26025 7.52357 8.2568 7.62168C8.25331 7.72074 8.24784 7.74914 8.24409 7.76382L8.63161 7.86295C8.64647 7.80486 8.65284 7.74103 8.65655 7.63575C8.66029 7.5295 8.66154 7.36782 8.66154 7.10769H8.26154ZM8.24333 7.76687C8.21557 7.88296 8.1562 7.98909 8.0718 8.07349L8.35464 8.35633C8.49129 8.21968 8.58742 8.04785 8.63236 7.8599L8.24333 7.76687ZM8.0718 8.07349C7.98739 8.15789 7.88126 8.21726 7.76518 8.24502L7.85821 8.63406C8.04616 8.58911 8.21799 8.49298 8.35464 8.35633L8.0718 8.07349ZM7.76881 8.24419C7.72617 8.25355 7.64225 8.26154 7.10769 8.26154V8.66154C7.61898 8.66154 7.75845 8.65599 7.85457 8.63489L7.76881 8.24419ZM7.10769 8.26154H3.04615V8.66154H7.10769V8.26154ZM3.04615 8.26154C2.78505 8.26154 2.63027 8.26025 2.53217 8.2568C2.4331 8.25331 2.40471 8.24784 2.39003 8.24409L2.29089 8.63161C2.34899 8.64647 2.41282 8.65285 2.5181 8.65655C2.62434 8.66029 2.78603 8.66154 3.04615 8.66154V8.26154ZM2.38698 8.24333C2.27089 8.21557 2.16476 8.1562 2.08036 8.0718L1.79752 8.35464C1.93416 8.49129 2.10599 8.58742 2.29395 8.63236L2.38698 8.24333ZM2.08036 8.0718C1.99596 7.9874 1.93658 7.88127 1.90882 7.76518L1.51979 7.85821C1.56474 8.04616 1.66087 8.21799 1.79752 8.35464L2.08036 8.0718ZM1.90966 7.76881C1.9003 7.72617 1.89231 7.64225 1.89231 7.10769H1.49231C1.49231 7.61898 1.49786 7.75845 1.51896 7.85458L1.90966 7.76881ZM1.89231 7.10769V3.04615H1.49231V7.10769H1.89231ZM1.89231 3.04615C1.89231 2.78505 1.8936 2.63027 1.89705 2.53217C1.90054 2.4331 1.90601 2.40471 1.90976 2.39003L1.52224 2.29089C1.50738 2.34899 1.501 2.41282 1.4973 2.5181C1.49356 2.62434 1.49231 2.78603 1.49231 3.04615H1.89231ZM1.91052 2.38698C1.93828 2.27089 1.99765 2.16476 2.08205 2.08036L1.79921 1.79752C1.66256 1.93417 1.56643 2.10599 1.52148 2.29395L1.91052 2.38698ZM2.08205 2.08036C2.16645 1.99596 2.27258 1.93658 2.38867 1.90882L2.29564 1.51979C2.10769 1.56474 1.93586 1.66087 1.79921 1.79752L2.08205 2.08036ZM14.8923 -0.2H14.8077V0.2H14.8923V-0.2ZM14.8077 -0.2C14.4267 -0.2 14.0681 -0.201073 13.7464 -0.125284L13.8382 0.264053C14.1055 0.201073 14.4136 0.2 14.8077 0.2V-0.2ZM13.7458 -0.125139C13.2541 -0.00763183 12.8044 0.243725 12.4468 0.601082L12.7295 0.884052C13.0349 0.578893 13.4189 0.364251 13.8388 0.263908L13.7458 -0.125139ZM12.4468 0.601082C12.0891 0.958438 11.8373 1.40784 11.7194 1.8995L12.1083 1.99281C12.209 1.57297 12.424 1.18921 12.7295 0.884052L12.4468 0.601082ZM11.7189 1.90135C11.6451 2.22237 11.6462 2.57872 11.6462 2.96154H12.0462C12.0462 2.56589 12.0472 2.25886 12.1088 1.99096L11.7189 1.90135ZM11.6462 2.96154V7.19231H12.0462V2.96154H11.6462ZM11.6462 7.19231C11.6462 7.57327 11.6451 7.93192 11.7209 8.25356L12.1102 8.16182C12.0472 7.89454 12.0462 7.58643 12.0462 7.19231H11.6462ZM11.721 8.25418C11.8385 8.74594 12.0899 9.19557 12.4472 9.55325L12.7302 9.27053C12.425 8.9651 12.2104 8.58114 12.1101 8.16121L11.721 8.25418ZM12.4472 9.55325C12.8046 9.91092 13.254 10.1627 13.7457 10.2806L13.839 9.89167C13.4191 9.79095 13.0354 9.57596 12.7302 9.27053L12.4472 9.55325ZM13.7475 10.2811C14.0685 10.3549 14.4249 10.3538 14.8077 10.3538V9.95385C14.412 9.95385 14.105 9.95283 13.8371 9.89124L13.7475 10.2811ZM14.8077 10.3538H19.0385V9.95385H14.8077V10.3538ZM19.0385 10.3538C19.4194 10.3538 19.7781 10.3549 20.0997 10.2791L20.008 9.88979C19.7407 9.95278 19.4326 9.95385 19.0385 9.95385V10.3538ZM20.1003 10.279C20.5921 10.1615 21.0417 9.91012 21.3994 9.55277L21.1167 9.2698C20.8112 9.57495 20.4273 9.7896 20.0074 9.88994L20.1003 10.279ZM21.3994 9.55277C21.7571 9.19541 22.0088 8.74601 22.1268 8.25435L21.7378 8.16104C21.6371 8.58088 21.4221 8.96464 21.1167 9.2698L21.3994 9.55277ZM22.1272 8.2525C22.201 7.93148 22.2 7.57513 22.2 7.19231H21.8C21.8 7.58795 21.799 7.89499 21.7374 8.16288L22.1272 8.2525ZM22.2 7.19231V2.96154H21.8V7.19231H22.2ZM22.2 2.96154C22.2 2.58058 22.2011 2.22192 22.1253 1.90028L21.7359 1.99202C21.7989 2.25931 21.8 2.56742 21.8 2.96154H22.2ZM22.1251 1.89967C22.0076 1.40791 21.7563 0.958281 21.3989 0.600602L21.1159 0.883317C21.4211 1.18875 21.6357 1.5727 21.7361 1.99264L22.1251 1.89967ZM21.3989 0.600602C21.0416 0.242923 20.5922 -0.00883907 20.1005 -0.126789L20.0072 0.262174C20.427 0.362896 20.8108 0.577883 21.1159 0.883317L21.3989 0.600602ZM20.0987 -0.127224C19.7776 -0.201023 19.4213 -0.2 19.0385 -0.2V0.2C19.4341 0.2 19.7411 0.201023 20.009 0.262608L20.0987 -0.127224ZM19.0385 -0.2H18.9538V0.2H19.0385V-0.2ZM18.9538 -0.2H14.8923V0.2H18.9538V-0.2ZM14.2319 1.9108C14.2765 1.90044 14.3604 1.89231 14.8923 1.89231V1.49231C14.3851 1.49231 14.2423 1.49771 14.1413 1.5212L14.2319 1.9108ZM14.8923 1.89231H18.9538V1.49231H14.8923V1.89231ZM18.9538 1.89231C19.215 1.89231 19.3697 1.8936 19.4678 1.89705C19.5669 1.90054 19.5953 1.90601 19.61 1.90976L19.7091 1.52224C19.651 1.50738 19.5872 1.501 19.4819 1.4973C19.3757 1.49356 19.214 1.49231 18.9538 1.49231V1.89231ZM19.613 1.91052C19.7291 1.93828 19.8352 1.99765 19.9196 2.08205L20.2025 1.79921C20.0658 1.66256 19.894 1.56643 19.7061 1.52148L19.613 1.91052ZM19.9196 2.08205C20.004 2.16645 20.0634 2.27258 20.0912 2.38867L20.4802 2.29564C20.4353 2.10769 20.3391 1.93586 20.2025 1.79921L19.9196 2.08205ZM20.0911 2.38848C20.0947 2.40364 20.0999 2.43276 20.1031 2.53198C20.1064 2.63013 20.1077 2.78515 20.1077 3.04615H20.5077C20.5077 2.78592 20.5064 2.62448 20.5029 2.51871C20.4995 2.41401 20.4936 2.35175 20.4803 2.29583L20.0911 2.38848ZM20.1077 3.04615V7.10769H20.5077V3.04615H20.1077ZM20.1077 7.10769C20.1077 7.64125 20.0996 7.72353 20.0892 7.76808L20.4788 7.85869C20.5023 7.75771 20.5077 7.6166 20.5077 7.10769H20.1077ZM20.0895 7.76687C20.0617 7.88296 20.0024 7.98909 19.9179 8.07349L20.2008 8.35633C20.3374 8.21968 20.4336 8.04785 20.4785 7.8599L20.0895 7.76687ZM19.9179 8.07349C19.8335 8.15789 19.7274 8.21726 19.6113 8.24502L19.7044 8.63406C19.8923 8.58911 20.0641 8.49298 20.2008 8.35633L19.9179 8.07349ZM19.6115 8.24498C19.5964 8.24859 19.5672 8.2537 19.468 8.257C19.3699 8.26025 19.2148 8.26154 18.9538 8.26154V8.66154C19.2141 8.66154 19.3755 8.66029 19.4813 8.65678C19.586 8.6533 19.6483 8.64742 19.7042 8.6341L19.6115 8.24498ZM18.9538 8.26154H14.8923V8.66154H18.9538V8.26154ZM14.8923 8.26154C14.6312 8.26154 14.4764 8.26025 14.3783 8.2568C14.2793 8.25331 14.2509 8.24784 14.2362 8.24409L14.137 8.63161C14.1951 8.64647 14.259 8.65285 14.3643 8.65655C14.4705 8.66029 14.6322 8.66154 14.8923 8.66154V8.26154ZM14.2331 8.24333C14.117 8.21557 14.0109 8.1562 13.9265 8.0718L13.6437 8.35464C13.7803 8.49129 13.9521 8.58742 14.1401 8.63236L14.2331 8.24333ZM13.9265 8.0718C13.8421 7.98739 13.7827 7.88127 13.755 7.76518L13.3659 7.85821C13.4109 8.04616 13.507 8.21799 13.6437 8.35464L13.9265 8.0718ZM13.7558 7.76881C13.7464 7.72617 13.7385 7.64225 13.7385 7.10769H13.3385C13.3385 7.61898 13.344 7.75845 13.3651 7.85458L13.7558 7.76881ZM13.7385 7.10769V3.04615H13.3385V7.10769H13.7385ZM13.7385 3.04615C13.7385 2.78505 13.7398 2.63027 13.7432 2.53217C13.7467 2.4331 13.7522 2.40471 13.7559 2.39003L13.3684 2.29089C13.3535 2.34899 13.3472 2.41282 13.3435 2.5181C13.3397 2.62434 13.3385 2.78603 13.3385 3.04615H13.7385ZM13.7567 2.38698C13.7844 2.27089 13.8438 2.16476 13.9282 2.08036L13.6454 1.79752C13.5087 1.93417 13.4126 2.10599 13.3676 2.29395L13.7567 2.38698ZM13.9282 2.08036C14.0126 1.99596 14.1187 1.93658 14.2348 1.90882L14.1418 1.51979C13.9538 1.56474 13.782 1.66087 13.6454 1.79752L13.9282 2.08036ZM2.96154 12.0462H7.19231V11.6462H2.96154V12.0462ZM7.19231 12.0462C7.58643 12.0462 7.89454 12.0472 8.16182 12.1102L8.25356 11.7209C7.93192 11.6451 7.57326 11.6462 7.19231 11.6462V12.0462ZM8.16121 12.1101C8.58114 12.2104 8.9651 12.425 9.27053 12.7302L9.55324 12.4472C9.19557 12.0899 8.74594 11.8385 8.25417 11.721L8.16121 12.1101ZM9.27053 12.7302C9.57596 13.0354 9.79095 13.4191 9.89167 13.839L10.2806 13.7457C10.1627 13.254 9.91092 12.8046 9.55324 12.4472L9.27053 12.7302ZM9.89124 13.8371C9.95282 14.105 9.95385 14.4121 9.95385 14.8077H10.3538C10.3538 14.4249 10.3549 14.0685 10.2811 13.7475L9.89124 13.8371ZM9.95385 14.8077V19.0385H10.3538V14.8077H9.95385ZM9.95385 19.0385C9.95385 19.4326 9.95277 19.7407 9.88979 20.008L10.2791 20.0997C10.3549 19.7781 10.3538 19.4194 10.3538 19.0385H9.95385ZM9.88994 20.0074C9.78959 20.4273 9.57495 20.8113 9.26979 21.1167L9.55276 21.3994C9.91012 21.0417 10.1615 20.5921 10.279 20.1003L9.88994 20.0074ZM9.26979 21.1167C8.96464 21.4221 8.58088 21.6371 8.16104 21.7378L8.25435 22.1268C8.74601 22.0088 9.19541 21.7571 9.55276 21.3994L9.26979 21.1167ZM8.16288 21.7374C7.89499 21.799 7.58795 21.8 7.19231 21.8V22.2C7.57513 22.2 7.93148 22.201 8.2525 22.1272L8.16288 21.7374ZM7.19231 21.8H2.96154V22.2H7.19231V21.8ZM2.96154 21.8C2.56742 21.8 2.25931 21.7989 1.99202 21.7359L1.90028 22.1253C2.22192 22.2011 2.58058 22.2 2.96154 22.2V21.8ZM1.99264 21.7361C1.5727 21.6358 1.18875 21.4211 0.883317 21.116L0.600602 21.3989C0.958281 21.7563 1.40791 22.0076 1.89967 22.1251L1.99264 21.7361ZM0.883317 21.116C0.577883 20.8108 0.362896 20.427 0.262174 20.0072L-0.126789 20.1005C-0.0088391 20.5922 0.242923 21.0416 0.600602 21.3989L0.883317 21.116ZM0.262608 20.009C0.201023 19.7411 0.2 19.4341 0.2 19.0385H-0.2C-0.2 19.4213 -0.201023 19.7776 -0.127224 20.0987L0.262608 20.009ZM0.2 19.0385V14.8077H-0.2V19.0385H0.2ZM0.2 14.8077C0.2 14.4136 0.201073 14.1055 0.264053 13.8382L-0.125284 13.7464C-0.201073 14.0681 -0.2 14.4267 -0.2 14.8077H0.2ZM0.263908 13.8388C0.364251 13.4189 0.578893 13.0349 0.884052 12.7295L0.601082 12.4468C0.243725 12.8044 -0.00763186 13.2541 -0.125139 13.7458L0.263908 13.8388ZM0.884052 12.7295C1.18921 12.424 1.57297 12.2091 1.99281 12.1083L1.8995 11.7194C1.40784 11.8373 0.958438 12.0891 0.601082 12.4468L0.884052 12.7295ZM1.99096 12.1088C2.25886 12.0472 2.56589 12.0462 2.96154 12.0462V11.6462C2.57872 11.6462 2.22237 11.6451 1.90135 11.7189L1.99096 12.1088ZM3.04615 13.3385C2.78603 13.3385 2.62434 13.3397 2.5181 13.3435C2.41282 13.3472 2.34899 13.3535 2.29089 13.3684L2.39003 13.7559C2.40471 13.7522 2.4331 13.7467 2.53217 13.7432C2.63027 13.7398 2.78505 13.7385 3.04615 13.7385V13.3385ZM2.29395 13.3676C2.10599 13.4126 1.93417 13.5087 1.79752 13.6454L2.08036 13.9282C2.16476 13.8438 2.27089 13.7844 2.38698 13.7567L2.29395 13.3676ZM1.79752 13.6454C1.66087 13.782 1.56474 13.9538 1.51979 14.1418L1.90882 14.2348C1.93658 14.1187 1.99596 14.0126 2.08036 13.9282L1.79752 13.6454ZM1.51896 14.1454C1.49786 14.2416 1.49231 14.381 1.49231 14.8923H1.89231C1.89231 14.3578 1.9003 14.2738 1.90966 14.2312L1.51896 14.1454ZM1.49231 14.8923V18.9538H1.89231V14.8923H1.49231ZM1.49231 18.9538C1.49231 19.214 1.49356 19.3757 1.4973 19.4819C1.501 19.5872 1.50738 19.651 1.52224 19.7091L1.90976 19.61C1.90601 19.5953 1.90054 19.5669 1.89705 19.4678C1.8936 19.3697 1.89231 19.215 1.89231 18.9538H1.49231ZM1.52148 19.7061C1.56643 19.894 1.66256 20.0658 1.79921 20.2025L2.08205 19.9196C1.99765 19.8352 1.93828 19.7291 1.91052 19.613L1.52148 19.7061ZM1.79921 20.2025C1.93586 20.3391 2.10769 20.4353 2.29564 20.4802L2.38867 20.0912C2.27258 20.0634 2.16645 20.004 2.08205 19.9196L1.79921 20.2025ZM2.29583 20.4803C2.35175 20.4936 2.41401 20.4995 2.51871 20.5029C2.62448 20.5064 2.78592 20.5077 3.04615 20.5077V20.1077C2.78515 20.1077 2.63013 20.1064 2.53198 20.1032C2.43276 20.0999 2.40364 20.0947 2.38848 20.0911L2.29583 20.4803ZM3.04615 20.5077H7.10769V20.1077H3.04615V20.5077ZM7.10769 20.5077C7.61659 20.5077 7.75771 20.5023 7.85869 20.4788L7.76808 20.0892C7.72353 20.0996 7.64125 20.1077 7.10769 20.1077V20.5077ZM7.8599 20.4785C8.04785 20.4336 8.21968 20.3374 8.35633 20.2008L8.07349 19.918C7.98909 20.0024 7.88296 20.0617 7.76687 20.0895L7.8599 20.4785ZM8.35633 20.2008C8.49298 20.0641 8.58911 19.8923 8.63405 19.7044L8.24502 19.6113C8.21726 19.7274 8.15789 19.8336 8.07349 19.918L8.35633 20.2008ZM8.6341 19.7042C8.64741 19.6483 8.6533 19.586 8.65677 19.4813C8.66029 19.3755 8.66154 19.2141 8.66154 18.9538H8.26154C8.26154 19.2148 8.26025 19.3699 8.257 19.468C8.2537 19.5672 8.24859 19.5964 8.24498 19.6115L8.6341 19.7042ZM8.66154 18.9538V14.8923H8.26154V18.9538H8.66154ZM8.66154 14.8923C8.66154 14.6322 8.66029 14.4705 8.65655 14.3643C8.65284 14.259 8.64647 14.1951 8.63161 14.1371L8.24409 14.2362C8.24784 14.2509 8.25331 14.2793 8.2568 14.3783C8.26025 14.4764 8.26154 14.6312 8.26154 14.8923H8.66154ZM8.63236 14.1401C8.58742 13.9522 8.49129 13.7803 8.35464 13.6437L8.0718 13.9265C8.1562 14.0109 8.21557 14.117 8.24333 14.2331L8.63236 14.1401ZM8.35464 13.6437C8.21799 13.507 8.04616 13.4109 7.85821 13.3659L7.76518 13.755C7.88126 13.7827 7.98739 13.8421 8.0718 13.9265L8.35464 13.6437ZM7.85457 13.3651C7.75845 13.344 7.61898 13.3385 7.10769 13.3385V13.7385C7.64225 13.7385 7.72617 13.7465 7.76881 13.7558L7.85457 13.3651ZM7.10769 13.3385H3.04615V13.7385H7.10769V13.3385ZM14.8923 11.6462H14.8077V12.0462H14.8923V11.6462ZM14.8077 11.6462C14.4267 11.6462 14.0681 11.6451 13.7464 11.7209L13.8382 12.1102C14.1055 12.0472 14.4136 12.0462 14.8077 12.0462V11.6462ZM13.7458 11.721C13.2541 11.8385 12.8044 12.0899 12.4468 12.4472L12.7295 12.7302C13.0349 12.425 13.4189 12.2104 13.8388 12.1101L13.7458 11.721ZM12.4468 12.4472C12.0891 12.8046 11.8373 13.254 11.7194 13.7457L12.1083 13.839C12.209 13.4191 12.424 13.0354 12.7295 12.7302L12.4468 12.4472ZM11.7189 13.7475C11.6451 14.0685 11.6462 14.4249 11.6462 14.8077H12.0462C12.0462 14.4121 12.0472 14.105 12.1088 13.8371L11.7189 13.7475ZM11.6462 14.8077V19.0385H12.0462V14.8077H11.6462ZM11.6462 19.0385C11.6462 19.4194 11.6451 19.7781 11.7209 20.0997L12.1102 20.008C12.0472 19.7407 12.0462 19.4326 12.0462 19.0385H11.6462ZM11.721 20.1003C11.8385 20.5921 12.0899 21.0417 12.4472 21.3994L12.7302 21.1167C12.425 20.8113 12.2104 20.4273 12.1101 20.0074L11.721 20.1003ZM12.4472 21.3994C12.8046 21.7571 13.254 22.0088 13.7457 22.1268L13.839 21.7378C13.4191 21.6371 13.0354 21.4221 12.7302 21.1167L12.4472 21.3994ZM13.7464 22.127C14.0681 22.2028 14.4267 22.2017 14.8077 22.2017V21.8017C14.4136 21.8017 14.1055 21.8006 13.8382 21.7376L13.7464 22.127ZM14.8077 22.2017H19.0385V21.8017H14.8077V22.2017ZM19.0385 22.2017C19.4194 22.2017 19.7781 22.2028 20.0997 22.127L20.008 21.7376C19.7407 21.8006 19.4326 21.8017 19.0385 21.8017V22.2017ZM20.1005 22.1268C20.5919 22.009 21.0411 21.7575 21.3985 21.4002L21.1156 21.1173C20.8105 21.4225 20.4269 21.6372 20.0072 21.7378L20.1005 22.1268ZM21.3985 21.4002C21.7558 21.0428 22.0073 20.5936 22.1251 20.1022L21.7361 20.0089C21.6355 20.4286 21.4208 20.8122 21.1156 21.1173L21.3985 21.4002ZM22.1253 20.1014C22.2011 19.7798 22.2 19.4211 22.2 19.0402H21.8C21.8 19.4343 21.7989 19.7424 21.7359 20.0097L22.1253 20.1014ZM22.2 19.0402V14.8077H21.8V19.0402H22.2ZM22.2 14.8077C22.2 14.4267 22.2011 14.0681 22.1253 13.7464L21.7359 13.8382C21.7989 14.1055 21.8 14.4136 21.8 14.8077H22.2ZM22.1251 13.7458C22.0076 13.2541 21.7563 12.8044 21.3989 12.4468L21.1159 12.7295C21.4211 13.0349 21.6357 13.4189 21.7361 13.8388L22.1251 13.7458ZM21.3989 12.4468C21.0416 12.0891 20.5922 11.8373 20.1005 11.7194L20.0072 12.1083C20.427 12.2091 20.8108 12.424 21.1159 12.7295L21.3989 12.4468ZM20.0987 11.7189C19.7776 11.6451 19.4213 11.6462 19.0385 11.6462V12.0462C19.4341 12.0462 19.7411 12.0472 20.009 12.1088L20.0987 11.7189ZM19.0385 11.6462H18.9538V12.0462H19.0385V11.6462ZM18.9538 11.6462H14.8923V12.0462H18.9538V11.6462ZM14.2319 13.757C14.2765 13.7466 14.3604 13.7385 14.8923 13.7385V13.3385C14.3851 13.3385 14.2423 13.3439 14.1413 13.3674L14.2319 13.757ZM14.8923 13.7385H18.9538V13.3385H14.8923V13.7385ZM18.9538 13.7385C19.215 13.7385 19.3697 13.7398 19.4678 13.7432C19.5669 13.7467 19.5953 13.7522 19.61 13.7559L19.7091 13.3684C19.651 13.3535 19.5872 13.3472 19.4819 13.3435C19.3757 13.3397 19.214 13.3385 18.9538 13.3385V13.7385ZM19.613 13.7567C19.7291 13.7844 19.8352 13.8438 19.9196 13.9282L20.2025 13.6454C20.0658 13.5087 19.894 13.4126 19.7061 13.3676L19.613 13.7567ZM19.9196 13.9282C20.004 14.0126 20.0634 14.1187 20.0912 14.2348L20.4802 14.1418C20.4353 13.9538 20.3391 13.782 20.2025 13.6454L19.9196 13.9282ZM20.0911 14.2346C20.0947 14.2498 20.0999 14.2789 20.1031 14.3781C20.1064 14.4763 20.1077 14.6313 20.1077 14.8923H20.5077C20.5077 14.6321 20.5064 14.4706 20.5029 14.3649C20.4995 14.2602 20.4936 14.1979 20.4803 14.142L20.0911 14.2346ZM20.1077 14.8923V18.9538H20.5077V14.8923H20.1077ZM20.1077 18.9538C20.1077 19.4874 20.0996 19.5697 20.0892 19.6142L20.4788 19.7048C20.5023 19.6039 20.5077 19.4628 20.5077 18.9538H20.1077ZM20.0895 19.613C20.0617 19.7291 20.0023 19.8352 19.9179 19.9196L20.2008 20.2025C20.3374 20.0658 20.4336 19.894 20.4785 19.7061L20.0895 19.613ZM19.9179 19.9196C19.8335 20.004 19.7274 20.0634 19.6113 20.0912L19.7044 20.4802C19.8923 20.4353 20.0641 20.3391 20.2008 20.2025L19.9179 19.9196ZM19.6115 20.0911C19.5964 20.0947 19.5672 20.0999 19.468 20.1032C19.3699 20.1064 19.2148 20.1077 18.9538 20.1077V20.5077C19.2141 20.5077 19.3755 20.5064 19.4813 20.5029C19.586 20.4995 19.6483 20.4936 19.7042 20.4803L19.6115 20.0911ZM18.9538 20.1077H14.8923V20.5077H18.9538V20.1077ZM14.8923 20.1077C14.3587 20.1077 14.2765 20.0996 14.2319 20.0892L14.1413 20.4788C14.2423 20.5023 14.3834 20.5077 14.8923 20.5077V20.1077ZM14.2331 20.0895C14.117 20.0617 14.0109 20.0024 13.9265 19.918L13.6437 20.2008C13.7803 20.3374 13.9521 20.4336 14.1401 20.4785L14.2331 20.0895ZM13.9265 19.918C13.8421 19.8336 13.7827 19.7274 13.755 19.6113L13.3659 19.7044C13.4109 19.8923 13.507 20.0641 13.6437 20.2008L13.9265 19.918ZM13.7558 19.615C13.7464 19.5723 13.7385 19.4884 13.7385 18.9538H13.3385C13.3385 19.4651 13.344 19.6046 13.3651 19.7007L13.7558 19.615ZM13.7385 18.9538V14.8923H13.3385V18.9538H13.7385ZM13.7385 14.8923C13.7385 14.6312 13.7398 14.4764 13.7432 14.3783C13.7467 14.2793 13.7522 14.2509 13.7559 14.2362L13.3684 14.1371C13.3535 14.1951 13.3472 14.259 13.3435 14.3643C13.3397 14.4705 13.3385 14.6322 13.3385 14.8923H13.7385ZM13.7567 14.2331C13.7844 14.117 13.8438 14.0109 13.9282 13.9265L13.6454 13.6437C13.5087 13.7803 13.4126 13.9522 13.3676 14.1401L13.7567 14.2331ZM13.9282 13.9265C14.0126 13.8421 14.1187 13.7827 14.2348 13.755L14.1418 13.3659C13.9538 13.4109 13.782 13.507 13.6454 13.6437L13.9282 13.9265Z" fill="black" mask="url(#path-1-inside-1_3727_9883)"/>
</svg>
