<svg width="20" height="21" viewBox="0 0 20 21" fill="none" xmlns="http://www.w3.org/2000/svg">
<path d="M7.93389 3.375V3.75H11.7119V3.375C11.7119 2.87772 11.5129 2.40081 11.1587 2.04917C10.8044 1.69754 10.3239 1.5 9.82292 1.5C9.32192 1.5 8.84144 1.69754 8.48718 2.04917C8.13292 2.40081 7.93389 2.87772 7.93389 3.375ZM6.42268 3.75V3.375C6.42268 2.47989 6.78092 1.62145 7.41858 0.988515C8.05625 0.355579 8.92112 0 9.82292 0C10.7247 0 11.5896 0.355579 12.2272 0.988515C12.8649 1.62145 13.2232 2.47989 13.2232 3.375V3.75H18.8902C19.0906 3.75 19.2828 3.82902 19.4245 3.96967C19.5662 4.11032 19.6458 4.30109 19.6458 4.5C19.6458 4.69891 19.5662 4.88968 19.4245 5.03033C19.2828 5.17098 19.0906 5.25 18.8902 5.25H17.7508L16.3212 17.676C16.2157 18.5911 15.7747 19.4358 15.0821 20.0488C14.3895 20.6618 13.4938 21.0004 12.5658 21H7.08006C6.15206 21.0004 5.25637 20.6618 4.56377 20.0488C3.87116 19.4358 3.4301 18.5911 3.32468 17.676L1.89507 5.25H0.755609C0.555209 5.25 0.363017 5.17098 0.221313 5.03033C0.0796085 4.88968 0 4.69891 0 4.5C0 4.30109 0.0796085 4.11032 0.221313 3.96967C0.363017 3.82902 0.555209 3.75 0.755609 3.75H6.42268ZM4.82683 17.505C4.88991 18.0539 5.15428 18.5606 5.56953 18.9286C5.98479 19.2965 6.52192 19.4999 7.07855 19.5H12.5665C13.1232 19.4999 13.6603 19.2965 14.0755 18.9286C14.4908 18.5606 14.7552 18.0539 14.8182 17.505L16.2305 5.25H3.41611L4.82683 17.505ZM7.55609 7.875C7.75649 7.875 7.94868 7.95402 8.09039 8.09467C8.23209 8.23532 8.3117 8.42609 8.3117 8.625V16.125C8.3117 16.3239 8.23209 16.5147 8.09039 16.6553C7.94868 16.796 7.75649 16.875 7.55609 16.875C7.35569 16.875 7.1635 16.796 7.02179 16.6553C6.88009 16.5147 6.80048 16.3239 6.80048 16.125V8.625C6.80048 8.42609 6.88009 8.23532 7.02179 8.09467C7.1635 7.95402 7.35569 7.875 7.55609 7.875ZM12.8454 8.625C12.8454 8.42609 12.7657 8.23532 12.624 8.09467C12.4823 7.95402 12.2901 7.875 12.0897 7.875C11.8893 7.875 11.6972 7.95402 11.5554 8.09467C11.4137 8.23532 11.3341 8.42609 11.3341 8.625V16.125C11.3341 16.3239 11.4137 16.5147 11.5554 16.6553C11.6972 16.796 11.8893 16.875 12.0897 16.875C12.2901 16.875 12.4823 16.796 12.624 16.6553C12.7657 16.5147 12.8454 16.3239 12.8454 16.125V8.625Z" fill="white"/>
</svg>
