<svg xmlns="http://www.w3.org/2000/svg" width="24" height="24" viewBox="0 0 24 24" fill="none">
<path d="M10.5288 4.875V5.25H14.4712V4.875C14.4712 4.37772 14.2635 3.90081 13.8938 3.54917C13.5242 3.19754 13.0228 3 12.5 3C11.9772 3 11.4758 3.19754 11.1062 3.54917C10.7365 3.90081 10.5288 4.37772 10.5288 4.875ZM8.95192 5.25V4.875C8.95192 3.97989 9.32574 3.12145 9.99113 2.48851C10.6565 1.85558 11.559 1.5 12.5 1.5C13.441 1.5 14.3435 1.85558 15.0089 2.48851C15.6743 3.12145 16.0481 3.97989 16.0481 4.875V5.25H21.9615C22.1707 5.25 22.3712 5.32902 22.5191 5.46967C22.6669 5.61032 22.75 5.80109 22.75 6C22.75 6.19891 22.6669 6.38968 22.5191 6.53033C22.3712 6.67098 22.1707 6.75 21.9615 6.75H20.7725L19.2808 19.176C19.1708 20.0911 18.7105 20.9358 17.9878 21.5488C17.2651 22.1618 16.3305 22.5004 15.3621 22.5H9.63788C8.66955 22.5004 7.73491 22.1618 7.01219 21.5488C6.28947 20.9358 5.82923 20.0911 5.71923 19.176L4.22746 6.75H3.03846C2.82935 6.75 2.6288 6.67098 2.48094 6.53033C2.33307 6.38968 2.25 6.19891 2.25 6C2.25 5.80109 2.33307 5.61032 2.48094 5.46967C2.6288 5.32902 2.82935 5.25 3.03846 5.25H8.95192ZM7.28669 19.005C7.35252 19.5539 7.62838 20.0606 8.06169 20.4286C8.495 20.7965 9.05548 20.9999 9.63631 21H15.3629C15.9437 20.9999 16.5042 20.7965 16.9375 20.4286C17.3708 20.0606 17.6467 19.5539 17.7125 19.005L19.1862 6.75H5.81463L7.28669 19.005ZM10.1346 9.375C10.3437 9.375 10.5443 9.45402 10.6921 9.59467C10.84 9.73532 10.9231 9.92609 10.9231 10.125V17.625C10.9231 17.8239 10.84 18.0147 10.6921 18.1553C10.5443 18.296 10.3437 18.375 10.1346 18.375C9.9255 18.375 9.72495 18.296 9.57709 18.1553C9.42922 18.0147 9.34615 17.8239 9.34615 17.625V10.125C9.34615 9.92609 9.42922 9.73532 9.57709 9.59467C9.72495 9.45402 9.9255 9.375 10.1346 9.375ZM15.6538 10.125C15.6538 9.92609 15.5708 9.73532 15.4229 9.59467C15.275 9.45402 15.0745 9.375 14.8654 9.375C14.6563 9.375 14.4557 9.45402 14.3079 9.59467C14.16 9.73532 14.0769 9.92609 14.0769 10.125V17.625C14.0769 17.8239 14.16 18.0147 14.3079 18.1553C14.4557 18.296 14.6563 18.375 14.8654 18.375C15.0745 18.375 15.275 18.296 15.4229 18.1553C15.5708 18.0147 15.6538 17.8239 15.6538 17.625V10.125Z" fill="#C36060"/>
</svg>