<svg width="17" height="17" viewBox="0 0 17 17" fill="none" xmlns="http://www.w3.org/2000/svg">
<path d="M15.2141 1.7859C14.7108 1.2827 14.0283 1 13.3166 1C12.6049 1 11.9224 1.2827 11.4191 1.7859L2.45525 10.7492C2.15059 11.0539 1.93641 11.4371 1.8365 11.8561L1.01527 15.3074C0.99303 15.4009 0.995115 15.4985 1.02132 15.5909C1.04753 15.6834 1.09698 15.7676 1.16497 15.8355C1.23296 15.9034 1.31721 15.9527 1.40969 15.9788C1.50217 16.005 1.59979 16.0069 1.69326 15.9846L5.14395 15.1627C5.56334 15.0629 5.94681 14.8487 6.25169 14.5439L15.2141 5.58212C15.7173 5.0789 16 4.3964 16 3.68476C16 2.97311 15.7173 2.29061 15.2141 1.7874V1.7859ZM12.2141 2.58084C12.3589 2.43607 12.5308 2.32123 12.7199 2.24288C12.9091 2.16453 13.1118 2.1242 13.3166 2.1242C13.5213 2.1242 13.7241 2.16453 13.9132 2.24288C14.1024 2.32123 14.2743 2.43607 14.4191 2.58084C14.5638 2.72561 14.6787 2.89748 14.757 3.08663C14.8354 3.27579 14.8757 3.47852 14.8757 3.68326C14.8757 3.888 14.8354 4.09073 14.757 4.27988C14.6787 4.46903 14.5638 4.6409 14.4191 4.78568L13.7501 5.45388L11.5451 3.24979L12.2141 2.58159V2.58084ZM10.7501 4.04623L12.9551 6.24957L5.4552 13.749C5.2977 13.9065 5.09971 14.0167 4.88296 14.0685L2.321 14.6789L2.93074 12.1171C2.98249 11.8996 3.09349 11.7017 3.25098 11.5442L10.7501 4.04473V4.04623Z" fill="#4E4E4E" stroke="#4E4E4E" strokeWidth="0.5"/>
</svg>
