<svg width="13" height="11" viewBox="0 0 13 11" fill="none" xmlns="http://www.w3.org/2000/svg">
<path fill-rule="evenodd" clip-rule="evenodd" d="M6.62503 1.15405C5.67095 1.02548 4.69872 1.19499 3.85486 1.63702C3.011 2.07905 2.34123 2.76966 1.94647 3.60478C1.55171 4.43989 1.45335 5.37427 1.66622 6.26712C1.87909 7.15996 2.39165 7.96289 3.12666 8.55491C3.86167 9.14693 4.77932 9.49598 5.74131 9.54944C6.7033 9.6029 7.65753 9.35789 8.46019 8.85133C9.26286 8.34476 9.87047 7.60409 10.1915 6.74092C10.2937 6.46608 10.6111 6.322 10.9004 6.4191C11.1897 6.51619 11.3413 6.8177 11.2391 7.09254C10.8379 8.1715 10.0784 9.09735 9.07502 9.73055C8.07169 10.3638 6.87891 10.67 5.67642 10.6032C4.47393 10.5364 3.32687 10.1001 2.40811 9.36003C1.48934 8.62 0.848644 7.61634 0.582559 6.50029C0.316473 5.38424 0.439418 4.21626 0.932866 3.17236C1.42631 2.12847 2.26353 1.26521 3.31835 0.712668C4.37318 0.160129 5.58846 -0.0517524 6.78107 0.108952C7.97084 0.269272 9.07373 0.791735 9.92438 1.59786L12.4906 3.89361C12.714 4.09344 12.7245 4.42746 12.5142 4.63966C12.3039 4.85187 11.9523 4.8619 11.7289 4.66207L9.15666 2.36096C9.15257 2.3573 9.14853 2.35358 9.14456 2.34981C8.46338 1.70228 7.57912 1.28261 6.62503 1.15405Z" fill="black"/>
</svg>