<svg width="20" height="23" viewBox="0 0 20 23" fill="none" xmlns="http://www.w3.org/2000/svg">
<path d="M6.13937 18.6875C6.6729 18.6875 7.02045 19.2483 6.78304 19.7261C6.66161 19.9705 6.41226 20.125 6.13937 20.125H1.2C0.537258 20.125 0 19.5877 0 18.925V1.2C0 0.537259 0.537258 0 1.2 0H15.9429C16.6056 0 17.1429 0.537258 17.1429 1.2V10.198C17.1429 10.9527 16.1247 11.1917 15.7889 10.5159C15.7398 10.4171 15.7143 10.3083 15.7143 10.198V2.6375C15.7143 1.97476 15.177 1.4375 14.5143 1.4375H2.62857C1.96583 1.4375 1.42857 1.97476 1.42857 2.6375V17.4875C1.42857 18.1502 1.96583 18.6875 2.62857 18.6875H6.13937ZM4.28571 9.34375C4.28571 9.73824 3.96592 10.0625 3.57143 10.0625C3.17694 10.0625 2.85714 9.73824 2.85714 9.34375C2.85714 8.94926 3.17694 8.625 3.57143 8.625C3.96592 8.625 4.28571 8.94926 4.28571 9.34375ZM11.783 9.66358C11.6616 9.90796 11.4123 10.0625 11.1394 10.0625H6.43304C6.03608 10.0625 5.71429 9.7407 5.71429 9.34375C5.71429 8.9468 6.03608 8.625 6.43304 8.625H11.1394C11.6729 8.625 12.0205 9.18579 11.783 9.66358ZM2.85714 13.6562C2.85714 13.2618 3.17694 12.9375 3.57143 12.9375C3.96592 12.9375 4.28571 13.2618 4.28571 13.6562C4.28571 14.0507 3.96592 14.375 3.57143 14.375C3.17694 14.375 2.85714 14.0507 2.85714 13.6562ZM5.71429 13.6562C5.71429 13.2593 6.03608 12.9375 6.43304 12.9375H8.99652C9.53004 12.9375 9.87759 13.4983 9.64018 13.9761C9.51875 14.2205 9.2694 14.375 8.99652 14.375H6.43304C6.03608 14.375 5.71429 14.0532 5.71429 13.6562ZM4.28571 5.03125C4.28571 5.42574 3.96592 5.75 3.57143 5.75C3.17694 5.75 2.85714 5.42574 2.85714 5.03125C2.85714 4.63676 3.17694 4.3125 3.57143 4.3125C3.96592 4.3125 4.28571 4.63676 4.28571 5.03125ZM14.2857 5.03125C14.2857 5.4282 13.9639 5.75 13.567 5.75H6.43303C6.03608 5.75 5.71429 5.4282 5.71429 5.03125C5.71429 4.6343 6.03608 4.3125 6.43304 4.3125H13.567C13.9639 4.3125 14.2857 4.6343 14.2857 5.03125ZM13.5714 15.8125C13.9659 15.8125 14.2857 16.1323 14.2857 16.5268V18.692C14.2857 19.0865 13.9659 19.4062 13.5714 19.4062C13.1769 19.4062 12.8571 19.0865 12.8571 18.692V16.5268C12.8571 16.1323 13.1769 15.8125 13.5714 15.8125ZM12.8571 20.8438C12.8571 20.4493 13.1769 20.125 13.5714 20.125C13.9659 20.125 14.2857 20.4493 14.2857 20.8438C14.2857 21.2382 13.9659 21.5625 13.5714 21.5625C13.1769 21.5625 12.8571 21.2382 12.8571 20.8438ZM19.1384 21.266C19.5348 22.0637 18.9545 23 18.0637 23H9.07911C8.18835 23 7.60809 22.0637 8.00447 21.266L12.4968 12.2252C12.938 11.3372 14.2048 11.3372 14.6461 12.2252L19.1384 21.266ZM10.0246 20.0082C9.62818 20.8059 10.2084 21.7422 11.0992 21.7422H16.0437C16.9344 21.7422 17.5147 20.8059 17.1183 20.0082L14.6461 15.0328C14.2048 14.1448 12.938 14.1448 12.4968 15.0328L10.0246 20.0082Z" fill="white"/>
</svg>