<svg width="20" height="24" viewBox="0 0 20 24" fill="none" xmlns="http://www.w3.org/2000/svg">
<path d="M6.13749 18.7676C6.67221 18.7676 7.0208 19.3294 6.78341 19.8085C6.66178 20.054 6.41148 20.2094 6.13749 20.2094H1.2C0.537258 20.2094 0 19.6721 0 19.0093V1.22539C0 0.56265 0.537258 0.0253906 1.2 0.0253906H15.9429C16.6056 0.0253906 17.1429 0.562649 17.1429 1.22539V10.2542C17.1429 11.0094 16.1238 11.248 15.7885 10.5713C15.7397 10.4728 15.7143 10.3642 15.7143 10.2542V2.6671C15.7143 2.00436 15.177 1.4671 14.5143 1.4671H2.62857C1.96583 1.4671 1.42857 2.00436 1.42857 2.6671V17.5676C1.42857 18.2304 1.96583 18.7676 2.62857 18.7676H6.13749ZM4.28571 9.39651C4.28571 9.791 3.96592 10.1174 3.57143 10.1174C3.17694 10.1174 2.85714 9.791 2.85714 9.39651C2.85714 9.00203 3.17694 8.67566 3.57143 8.67566C3.96592 8.67566 4.28571 9.00203 4.28571 9.39651ZM11.7834 9.71653C11.6618 9.96204 11.4115 10.1174 11.1375 10.1174H6.43514C6.03702 10.1174 5.71429 9.79463 5.71429 9.39651C5.71429 8.9984 6.03702 8.67566 6.43514 8.67566H11.1375C11.6722 8.67566 12.0208 9.2374 11.7834 9.71653ZM2.85714 13.7216C2.85714 13.3272 3.17694 13.0008 3.57143 13.0008C3.96592 13.0008 4.28571 13.3272 4.28571 13.7216C4.28571 14.1161 3.96592 14.4425 3.57143 14.4425C3.17694 14.4425 2.85714 14.1161 2.85714 13.7216ZM5.71429 13.7216C5.71429 13.3235 6.03702 13.0008 6.43514 13.0008H8.99463C9.52935 13.0008 9.87794 13.5625 9.64056 14.0417C9.51892 14.2872 9.26862 14.4425 8.99463 14.4425H6.43514C6.03702 14.4425 5.71429 14.1198 5.71429 13.7216ZM4.28571 5.07138C4.28571 5.46587 3.96592 5.79224 3.57143 5.79224C3.17694 5.79224 2.85714 5.46587 2.85714 5.07138C2.85714 4.67689 3.17694 4.35052 3.57143 4.35052C3.96592 4.35052 4.28571 4.67689 4.28571 5.07138ZM14.2857 5.07138C14.2857 5.4695 13.963 5.79224 13.5649 5.79224H6.43514C6.03702 5.79224 5.71429 5.4695 5.71429 5.07138C5.71429 4.67326 6.03702 4.35052 6.43514 4.35052H13.5649C13.963 4.35052 14.2857 4.67326 14.2857 5.07138ZM13.5714 15.8842C13.9659 15.8842 14.2857 16.204 14.2857 16.5985V18.7742C14.2857 19.1687 13.9659 19.4885 13.5714 19.4885C13.1769 19.4885 12.8571 19.1687 12.8571 18.7742V16.5985C12.8571 16.204 13.1769 15.8842 13.5714 15.8842ZM12.8571 20.9302C12.8571 20.5357 13.1769 20.2094 13.5714 20.2094C13.9659 20.2094 14.2857 20.5357 14.2857 20.9302C14.2857 21.3247 13.9659 21.6511 13.5714 21.6511C13.1769 21.6511 12.8571 21.3247 12.8571 20.9302ZM19.1415 21.36C19.5367 22.1577 18.9564 23.0928 18.0663 23.0928H9.07659C8.18645 23.0928 7.60615 22.1577 8.00133 21.36L12.4962 12.2877C12.937 11.398 14.2059 11.398 14.6467 12.2877L19.1415 21.36ZM10.0214 20.0985C9.62624 20.8962 10.2065 21.8313 11.0967 21.8313H16.0462C16.9363 21.8313 17.5166 20.8962 17.1214 20.0985L14.6467 15.1035C14.2059 14.2138 12.937 14.2138 12.4962 15.1035L10.0214 20.0985Z" fill="white"/>
</svg>
