<svg width="30" height="30" viewBox="0 0 30 30" fill="none" xmlns="http://www.w3.org/2000/svg">
<path d="M11 8.75C11 7.68913 11.4214 6.67172 12.1716 5.92157C12.9217 5.17143 13.9391 4.75 15 4.75C16.0609 4.75 17.0783 5.17143 17.8284 5.92157C18.5786 6.67172 19 7.68913 19 8.75C19 9.81087 18.5786 10.8283 17.8284 11.5784C17.0783 12.3286 16.0609 12.75 15 12.75C13.9391 12.75 12.9217 12.3286 12.1716 11.5784C11.4214 10.8283 11 9.81087 11 8.75ZM6.28769 18.7877C7.27226 17.8031 8.60761 17.25 10 17.25H20C21.3924 17.25 22.7277 17.8031 23.7123 18.7877C24.6969 19.7723 25.25 21.1076 25.25 22.5C25.25 23.2293 24.9603 23.9288 24.4445 24.4445C23.9288 24.9603 23.2293 25.25 22.5 25.25H7.5C6.77065 25.25 6.07118 24.9603 5.55546 24.4445C5.03973 23.9288 4.75 23.2293 4.75 22.5C4.75 21.1076 5.30312 19.7723 6.28769 18.7877Z" stroke="white" strokeWidth="2"/>
</svg>
